<?xml version="1.0" encoding="utf-8"?>
<!-- Generator: Adobe Illustrator 15.1.0, SVG Export Plug-In . SVG Version: 6.00 Build 0)  -->
<!DOCTYPE svg PUBLIC "-//W3C//DTD SVG 1.1//EN" "http://www.w3.org/Graphics/SVG/1.1/DTD/svg11.dtd">
<svg version="1.1" id="b06587d5-0dba-482d-8c16-9624be0edba5"
	 xmlns="http://www.w3.org/2000/svg" xmlns:xlink="http://www.w3.org/1999/xlink" x="0px" y="0px" width="1008.11px"
	 height="779.57px" viewBox="0 0 1008.11 779.57" enable-background="new 0 0 1008.11 779.57" xml:space="preserve">
<title>usability testing</title>
<ellipse opacity="0.1" fill="#2E72B9" enable-background="new    " cx="365.75" cy="707.07" rx="363.969" ry="44.52"/>
<path fill="#E8EAF2" d="M28.13,0h972.33c4.225,0,7.65,3.425,7.65,7.65v523.36c0,4.226-3.426,7.65-7.65,7.65H28.13
	c-4.225,0-7.65-3.425-7.65-7.65V7.65C20.48,3.425,23.905,0,28.13,0z"/>
<path fill="#65617D" d="M1008.1,7.65v25.86H20.47V7.65c0-4.225,3.425-7.65,7.65-7.65c0.003,0,0.006,0,0.01,0h972.32
	c4.221-0.005,7.645,3.411,7.65,7.63C1008.1,7.637,1008.1,7.644,1008.1,7.65z"/>
<circle opacity="0.8" fill="#FA5959" enable-background="new    " cx="35.72" cy="16.76" r="6.52"/>
<circle opacity="0.8" fill="#FED253" enable-background="new    " cx="53.29" cy="16.76" r="6.52"/>
<circle opacity="0.8" fill="#8CCF4D" enable-background="new    " cx="70.87" cy="16.76" r="6.52"/>
<path opacity="0.2" fill="#2E72B9" enable-background="new    " d="M72,68.32h465.18c4.225,0,7.65,3.425,7.65,7.65v207.81
	c0,4.225-3.426,7.65-7.65,7.65H72c-4.225,0-7.65-3.425-7.65-7.65V75.97C64.35,71.745,67.775,68.32,72,68.32z"/>
<path fill="#FFFFFF" d="M66.24,359.46h476.7c1.043,0,1.891,0.847,1.891,1.89v11.53c0,1.044-0.848,1.89-1.891,1.89H66.24
	c-1.044,0-1.89-0.846-1.89-1.89v-11.53C64.35,360.307,65.196,359.46,66.24,359.46z"/>
<path fill="#FFFFFF" d="M66.24,391.78h476.7c1.043,0,1.891,0.846,1.891,1.89v11.53c0,1.044-0.848,1.89-1.891,1.89H66.24
	c-1.044,0-1.89-0.846-1.89-1.89v-11.53C64.35,392.626,65.196,391.78,66.24,391.78z"/>
<path fill="#FFFFFF" d="M66.24,424.09h476.7c1.043,0,1.891,0.847,1.891,1.891v11.529c0,1.044-0.848,1.891-1.891,1.891H66.24
	c-1.044,0-1.89-0.847-1.89-1.891V425.98C64.35,424.937,65.196,424.09,66.24,424.09z"/>
<path fill="#FFFFFF" d="M66.24,456.41h476.7c1.043,0,1.891,0.846,1.891,1.89v11.53c0,1.044-0.848,1.89-1.891,1.89H66.24
	c-1.044,0-1.89-0.846-1.89-1.89V458.3C64.35,457.256,65.196,456.41,66.24,456.41z"/>
<path fill="#FFFFFF" d="M66.24,488.72h476.7c1.043,0,1.891,0.847,1.891,1.891v11.529c0,1.044-0.848,1.891-1.891,1.891H66.24
	c-1.044,0-1.89-0.847-1.89-1.891V490.61C64.35,489.566,65.196,488.72,66.24,488.72z"/>
<path fill="#FFFFFF" d="M608.309,68.32h336.762c4.225,0,7.648,3.425,7.648,7.65v420.41c0,4.226-3.424,7.65-7.648,7.65H608.309
	c-4.225,0-7.648-3.425-7.648-7.65V75.97C600.661,71.745,604.084,68.32,608.309,68.32z"/>
<path opacity="0.2" fill="#2E72B9" enable-background="new    " d="M622.11,118.52h59.721c1.043,0,1.889,0.846,1.889,1.89v11.53
	c0,1.044-0.846,1.89-1.889,1.89H622.11c-1.043,0-1.891-0.846-1.891-1.89v-11.53C620.219,119.366,621.067,118.52,622.11,118.52z"/>
<path fill="#E8EAF2" d="M622.11,147.43h312c1.045,0,1.891,0.846,1.891,1.89v11.53c0,1.044-0.846,1.89-1.891,1.89h-312
	c-1.043,0-1.891-0.846-1.891-1.89v-11.53C620.219,148.276,621.067,147.43,622.11,147.43z"/>
<path fill="#E8EAF2" d="M622.11,176.35h312c1.045,0,1.891,0.846,1.891,1.89v11.53c0,1.044-0.846,1.89-1.891,1.89h-312
	c-1.043,0-1.891-0.846-1.891-1.89v-11.53C620.219,177.196,621.067,176.35,622.11,176.35z"/>
<path opacity="0.2" fill="#2E72B9" enable-background="new    " d="M622.11,234.17h59.721c1.043,0,1.889,0.846,1.889,1.89v11.53
	c0,1.044-0.846,1.89-1.889,1.89H622.11c-1.043,0-1.891-0.846-1.891-1.89v-11.53C620.219,235.016,621.067,234.17,622.11,234.17z"/>
<path fill="#E8EAF2" d="M622.11,263.09h312c1.045,0,1.891,0.846,1.891,1.89v11.53c0,1.044-0.846,1.89-1.891,1.89h-312
	c-1.043,0-1.891-0.846-1.891-1.89v-11.53C620.219,263.936,621.067,263.09,622.11,263.09z"/>
<path fill="#E8EAF2" d="M622.11,292h312c1.045,0,1.891,0.846,1.891,1.89v11.53c0,1.044-0.846,1.89-1.891,1.89h-312
	c-1.043,0-1.891-0.846-1.891-1.89v-11.53C620.219,292.846,621.067,292,622.11,292z"/>
<path opacity="0.2" fill="#2E72B9" enable-background="new    " d="M622.11,349.83h59.721c1.043,0,1.889,0.846,1.889,1.89v11.53
	c0,1.044-0.846,1.89-1.889,1.89H622.11c-1.043,0-1.891-0.846-1.891-1.89v-11.53C620.219,350.676,621.067,349.83,622.11,349.83z"/>
<path fill="#E8EAF2" d="M622.11,378.74h312c1.045,0,1.891,0.846,1.891,1.89v11.53c0,1.044-0.846,1.89-1.891,1.89h-312
	c-1.043,0-1.891-0.846-1.891-1.89v-11.53C620.219,379.586,621.067,378.74,622.11,378.74z"/>
<path fill="#E8EAF2" d="M622.11,407.65h312c1.045,0,1.891,0.846,1.891,1.89v11.53c0,1.044-0.846,1.89-1.891,1.89h-312
	c-1.043,0-1.891-0.846-1.891-1.89v-11.53C620.219,408.496,621.067,407.65,622.11,407.65z"/>
<path fill="#2E72B9" d="M869.86,465.48h59.721c1.043,0,1.889,0.846,1.889,1.89v11.53c0,1.043-0.846,1.89-1.889,1.89H869.86
	c-1.043,0-1.891-0.847-1.891-1.89v-11.53C867.969,466.326,868.817,465.48,869.86,465.48z"/>
<path fill="#2E72B9" d="M483.22,307.31h59.72c1.043,0,1.891,0.847,1.891,1.891v11.53c0,1.043-0.848,1.89-1.891,1.89h-59.72
	c-1.044,0-1.89-0.847-1.89-1.89V309.2C481.33,308.156,482.176,307.31,483.22,307.31z"/>
<linearGradient id="SVGID_1_" gradientUnits="userSpaceOnUse" x1="1105.395" y1="-305.731" x2="1105.395" y2="138.4595" gradientTransform="matrix(-1 0 0 -1 1698.3213 420.3496)">
	<stop  offset="0" style="stop-color:#808080;stop-opacity:0.25"/>
	<stop  offset="0.54" style="stop-color:#808080;stop-opacity:0.12"/>
	<stop  offset="1" style="stop-color:#808080;stop-opacity:0.1"/>
</linearGradient>
<path fill="url(#SVGID_1_)" d="M505.549,335.66c0.943,1.29,2.072,2.433,3.352,3.39c0.84,0.69,1.689,1.391,2.58,2l0.779,0.521
	c-0.031,0.044-0.057,0.091-0.08,0.14c-0.211,0.381-0.291,0.819-0.23,1.25c0.191,0.521,0.541,0.968,1,1.28
	c2.082,1.934,3.484,4.486,4,7.279c0.311,1.62-0.779,3.351-0.709,5c0.158,1.614,0.588,3.189,1.27,4.66
	c1.359,3.471,2.811,7.061,5.539,9.59c0.645,5.572,2.791,10.864,6.211,15.311c2.869,3.68,6.699,6.45,10.471,9.18
	c1.195,0.957,2.496,1.772,3.879,2.431c1.242,0.453,2.525,0.787,3.83,1c11.072,2.245,22.316,3.536,33.609,3.859
	c0.32,6.72,0.457,13.447,0.41,20.181c0.061,1.105-0.096,2.213-0.459,3.26c-0.561,0.983-1.232,1.899-2,2.729
	c-2.59,3.44-2.721,8.09-2.5,12.391c0.252,5.033,0.836,10.044,1.75,15c1.17,6.34,0.1,13.35,2.35,19.38
	c0.891,2.38,1.779,4.77,2.66,7.149c0.299,0.667,0.479,1.382,0.529,2.11c0,1.57-1,2.9-1.799,4.26c-1.111,1.978-1.65,4.225-1.561,6.49
	c-0.01,0.257,0.057,0.511,0.189,0.73c0.291,0.39,0.881,0.359,1.371,0.279c1.988-0.284,3.992-0.468,6-0.55
	c-0.367,0.449-0.701,0.924-1,1.42c-0.48,0.841-0.906,1.713-1.271,2.61c-0.717,1.496-1.283,3.061-1.689,4.67
	c-0.072,0.232-0.129,0.47-0.17,0.71c-0.109,0.479-0.209,1-0.289,1.45c-0.43,2.839-0.604,5.71-0.521,8.58
	c-0.279,5.35-0.549,10.93-1.07,12.569c-0.729,2.311,0.182,6,1.08,9.53c0.049,2.435,0.486,4.846,1.301,7.14
	c0.072,2.531,0.363,5.051,0.869,7.53c3.088,17.407,6.381,34.783,9.881,52.13c0.311,1.5,0.609,3,1,4.48
	c1.301,4.821,3.578,9.324,6.689,13.229c2.736,3.463,5.084,7.215,7,11.19c-0.199,0.939-0.41,1.89-0.639,2.83
	c-2,8.3-4.561,16.479-5.471,25c-0.359,3.38-0.461,6.859-1.801,10c-0.68,1.59-1.68,3.1-1.818,4.83
	c-0.08,1.095,0.178,2.188,0.738,3.13l-0.658,0.54l-0.371,0.3c-2.539,2-5.939,2.43-9.07,3.25c-3.129,0.82-6.49,2.46-7.459,5.57
	c-0.064,0.192-0.115,0.39-0.15,0.59c-0.57,2.86,1.16,5.9,3.6,7.58c2.6,1.79,5.84,2.34,9,2.75s6.359,0.7,9.189,2.109
	c2.451,1.211,4.512,3.2,7.102,4.08l0.469,0.131c-0.59,0.35-1.17,0.689-1.779,1c-2.682,1.387-5.58,2.31-8.57,2.729
	c-3,0.41-6.619,0.61-8.17,3.24l0,0c-1.27,2.17-0.35,5.109,1.48,6.83c1.83,1.72,4.369,2.479,6.82,3c5.609,1.1,11.291,1.805,17,2.109
	l5.539,0.431c5.41,0.409,10.83,0.83,16.27,0.85c6.705,0.021,13.4-0.561,20-1.74c0.941,0.081,1.77-0.616,1.85-1.558
	c0.014-0.147,0.006-0.296-0.02-0.442c-0.117-6.794-0.941-13.557-2.459-20.18c-0.461-2-3.17,0.729-4.68,2.44
	c-0.211-1-0.432-2-0.691-2.931l1.191-0.56c0.908-0.348,1.676-0.987,2.18-1.82c0.242-0.672,0.32-1.392,0.229-2.1
	c-0.219-4.36-0.488-8.88-2.559-12.71c-1.352-2.292-3.035-4.368-5-6.16c-0.473-13.714-2.145-27.359-5-40.78
	c-1.531-6.83-3.43-13.74-7.381-19.52c-0.5-0.721-1-1.44-1.57-2.17c-0.426-6.569-1.221-13.11-2.379-19.591
	c-0.232-0.854-0.232-1.755,0-2.609c0.379-0.734,0.863-1.408,1.439-2c2.381-3.07,1.41-7.431,1.131-11.311
	c-0.391-5.56,0.92-11.09,2.229-16.52l4.83-20.09c0.395-1.905,0.965-3.77,1.701-5.57c1.27-2.44,2.725-4.78,4.35-7
	c4.51-7.108,6.635-15.471,6.061-23.87c0.92,0.33,1.83,0.66,2.729,1c0.682-5.61-1.689-12,0-17.25c2.91-2.119,5.258-4.917,6.84-8.15
	c1.33-3,1.701-6.3,3.092-9.239c0.779-1.66,1.879-3.181,2.34-5c0.68-2.66-0.18-5.46-0.141-8.21c0.09-6,4.42-11.53,3.49-17.431
	c-0.451-2.8-2.08-5.41-2-8.25c0.135-1.54,0.523-3.047,1.15-4.46c3.299-8.71,6.529-18,4.85-27.149
	c-0.43-2.351-1.189-4.681-1.061-7.061c0.141-2.729,1.43-5.38,1-8.09c-0.162-1.029-0.578-2.002-1.209-2.83
	c1.178-1.811,2.182-3.729,3-5.729c0.541-1.146,0.811-2.402,0.789-3.67c-0.232-1.744-1.164-3.317-2.58-4.36
	c-1.41-1.009-2.918-1.877-4.5-2.59c-0.496-0.222-0.941-0.541-1.311-0.94c-0.281-0.45-0.529-0.922-0.738-1.41
	c-0.881-1.529-2.801-2-4.301-2.93c-5.449-3.33-4.93-11.9-9.58-16.28c-3.262-2.923-8.117-3.181-11.67-0.62
	c-0.439,0.449-1.018,0.734-1.641,0.811c-0.602-0.122-1.154-0.417-1.59-0.851c-1.156-0.779-2.537-1.161-3.93-1.09
	c-0.855-3.411-1.225-6.926-1.1-10.439h0.42c0.549,0.017,1.098-0.047,1.629-0.19c2.391-0.689,3.75-3.17,4.73-5.47
	c0.846-1.946,1.547-3.951,2.1-6c0.051-0.2,0.09-0.39,0.141-0.59c4.58,3.22,9.9,6.59,11.18,5.88c2.34-1.29-10.5-10.43-10.5-10.43l0,0
	l0,0c1.51-1.341,2.35-3.761,2.73-5.9c0.908-4.252,0.941-8.645,0.1-12.91c-1-4.21-3.529-8.22-7.369-10.19
	c-1.701-0.88-3.76-1.48-5-2.83l0,0c-0.189-0.2-0.354-0.421-0.49-0.66l0,0c-0.07-0.113-0.133-0.23-0.189-0.35
	c-0.133-0.373-0.314-0.726-0.541-1.05c-0.699-0.82-2-0.57-3-0.44h-0.35h-0.281h-0.289c-3.811,0.08-7.5-2.05-11.35-2.05
	c-4.221,0-7.82,2.45-11.531,4.13c-0.75,0.34-1.459,0.65-2.129,1c-2.33,1.09-4.16,2.24-5.33,4.86c-0.74,0.868-1.27,1.895-1.551,3
	c-0.115,0.506-0.182,1.021-0.199,1.54c-10.027,9.928-10.109,26.105-0.182,36.133c3.217,3.25,7.248,5.576,11.672,6.737
	c0.09,0.25,0.189,0.5,0.27,0.76c0.764,2.299,1.139,4.709,1.109,7.13c0,0.171,0,0.341,0,0.521c-1.941,0.458-3.799,1.214-5.51,2.24
	c-2.182,1.29-3.832,3.313-4.66,5.71c-0.049,0.189-0.1,0.37-0.139,0.54c-1.357-0.447-2.773-0.689-4.201-0.721
	c-1.303-0.185-2.623,0.21-3.609,1.08c-0.328,0.406-0.561,0.882-0.68,1.391c-0.49,0.449-0.58,1.239-0.93,1.84
	c-1.07,1.88-3.861,1.26-6,1.78c-2.281,0.56-4.08,2.699-6.42,2.71c-0.895-0.138-1.801-0.171-2.701-0.101c-0.879,0.22-1.57,1.43-0.9,2
	c-1.072-0.11-2.117,0.393-2.699,1.3c-0.65,0.841-1.07,1.841-1.791,2.63c-0.629-0.881-1.721-1.305-2.779-1.079
	c-1.035,0.228-2.027,0.619-2.939,1.159c-0.406,0.218-0.846,0.37-1.301,0.45c-0.529,0.034-1.063-0.014-1.58-0.14
	c-2.51-0.42-5.09-0.071-7.4,1c-2,1-4-0.811-6.238-0.95c-0.822,0.045-1.631-0.207-2.281-0.71c-0.422-0.525-0.715-1.142-0.859-1.8
	c-1.025-2.937-3.502-5.129-6.541-5.79c1.211-3.818-0.742-7.922-4.469-9.391c0.295-2.678-0.752-5.328-2.801-7.079
	c-0.494-0.33-0.963-0.698-1.4-1.101c-0.594-0.701-1.037-1.519-1.299-2.399c-0.668-1.747-1.334-3.497-2-5.25
	c-0.871-0.181-1.561-0.54-2.391-0.681c0-0.18,0-0.359,0-0.54c-0.025-1.796-0.33-3.576-0.9-5.279c-1.02-2.765-2.449-5.36-4.24-7.7
	c-1.889-2.65-4-5.25-6.809-6.851c-0.939-0.503-1.908-0.95-2.9-1.34l-5.109-2.109c-0.293-0.139-0.609-0.22-0.932-0.24
	c-1.379,0-1.629,2.12-0.85,3.26c1.561,2.29,5.061,2.93,6.051,5.53c-1.705,0.059-3.18,1.21-3.65,2.85
	c-0.039,0.423-0.209,0.821-0.49,1.141c-0.449,0.369-1.16,0.159-1.67,0.439c-0.91,0.48-0.51,1.84-0.609,2.87
	c-0.221,0.894-0.531,1.761-0.93,2.59C504.234,332.579,504.557,334.309,505.549,335.66z M628.049,693.93l-0.119-1.58
	c0.109,0.28,0.209,0.57,0.32,0.851c0.9,2.359,1.9,4.693,3,7l-0.191-0.09c-0.771-0.355-1.596-0.592-2.439-0.7
	c-0.219,0-0.449-0.05-0.68-0.061C628.235,697.558,628.272,695.732,628.049,693.93z"/>
<path fill="#EE8E9E" d="M614.2,349.22c-0.1,3.73-1.359,7.351-1.561,11.07c11,0.55,21.83-4.78,32.701-3.15c-3-2-4.66-5.51-5.621-9
	c-1.219-4.502-1.58-9.193-1.068-13.83c0.027-0.259,0.07-0.516,0.129-0.77c0.41-1.82,1.451-4.4,1.17-5.84
	c-0.369-1.9-2.16-1.521-3.77-1.41c-4.916,0.369-9.811,1-14.66,1.89c-1.27,0.221-13.58,3.29-13.76,3c2.158,3.47,3.943,7.157,5.33,11
	C613.846,344.449,614.221,346.828,614.2,349.22z"/>
<path fill="#EE8E9E" d="M505.549,337.69c0.939,1.292,2.07,2.436,3.352,3.39c0.84,0.68,1.689,1.38,2.58,2
	c1.598,1.227,3.498,1.998,5.5,2.229c2.609,0.181,8.17-1.359,9.799-3.6c0.682-1.127,1.006-2.435,0.93-3.75
	c-0.025-1.786-0.33-3.558-0.9-5.25c-1.02-2.755-2.449-5.341-4.238-7.67c-1.891-2.63-4-5.22-6.811-6.81
	c-0.938-0.504-1.906-0.948-2.9-1.33l-5.109-2.12c-0.293-0.139-0.607-0.22-0.93-0.24c-1.381,0-1.631,2.11-0.852,3.24
	c1.561,2.279,5.061,2.92,6.051,5.51c-1.705,0.044-3.184,1.19-3.65,2.83c-0.037,0.422-0.209,0.821-0.49,1.14
	c-0.449,0.36-1.16,0.16-1.67,0.431c-0.91,0.479-0.51,1.84-0.609,2.859c-0.223,0.889-0.535,1.753-0.93,2.58
	C504.266,334.705,504.588,336.379,505.549,337.69z"/>
<path fill="#65617D" d="M657.049,711.78c-0.85-0.84-2.229-0.7-3.41-0.511c-6.357,0.99-12.783,1.495-19.219,1.511
	c-0.801-3.92,1.529-7.74,2.279-11.67c0.104-1.032,0.359-2.043,0.76-3c0.91-1.74,3-2.53,4.861-2.931c3.449-0.729,8.85-2,10.779,1.471
	C655.411,700.88,656.151,707.07,657.049,711.78z"/>
<path fill="#3F3D56" d="M586.78,696.91c2.6,1.78,5.84,2.33,9,2.74c3.16,0.409,6.359,0.699,9.189,2.09
	c2.451,1.21,4.512,3.189,7.102,4.06c2.41,0.665,4.949,0.706,7.379,0.12c2.91-0.55,6-1.61,7.58-4.12c1.4-2.24,1.25-5.069,1.061-7.7
	c-0.23-3-0.439-6-0.66-8.93c0.006-0.757-0.188-1.501-0.561-2.16c-2.1-3.069-7.219,1.28-10,1.28c-4.34,0-9-2.36-12.129-5.24
	c-0.275-0.283-0.594-0.522-0.941-0.71c-1.24-0.55-2.469,0.47-3.568,1.37l-0.371,0.3c-2.539,2-5.939,2.42-9.07,3.23
	c-3.129,0.81-6.49,2.45-7.459,5.54c-0.064,0.196-0.115,0.396-0.15,0.6C582.61,692.22,584.34,695.25,586.78,696.91z"/>
<path opacity="0.05" enable-background="new    " d="M586.78,696.91c2.6,1.78,5.84,2.33,9,2.74c3.16,0.409,6.359,0.699,9.189,2.09
	c2.451,1.21,4.512,3.189,7.102,4.06c2.41,0.665,4.949,0.706,7.379,0.12c2.91-0.55,6-1.61,7.58-4.12c1.4-2.24,1.25-5.069,1.061-7.7
	c-0.23-3-0.439-6-0.66-8.93c0.006-0.757-0.188-1.501-0.561-2.16c-2.1-3.069-7.219,1.28-10,1.28c-4.34,0-9-2.36-12.129-5.24
	c-0.275-0.283-0.594-0.522-0.941-0.71c-1.24-0.55-2.469,0.47-3.568,1.37l-0.371,0.3c-2.539,2-5.939,2.42-9.07,3.23
	c-3.129,0.81-6.49,2.45-7.459,5.54c-0.064,0.196-0.115,0.396-0.15,0.6C582.61,692.22,584.34,695.25,586.78,696.91z"/>
<path fill="#E8EAF2" d="M586.78,697.91c2.6,1.78,5.84,2.33,9,2.74c3.16,0.409,6.359,0.699,9.189,2.09
	c2.451,1.21,4.512,3.189,7.102,4.06c2.41,0.665,4.949,0.706,7.379,0.12c3.096-0.658,5.814-2.494,7.58-5.12
	c1.4-2.24,1.25-5.069,1.061-7.7c-0.23-3-0.439-6-0.66-8.93c0.006-0.757-0.188-1.501-0.561-2.16c-2.1-3.069-7.219,1.28-10,1.28
	c-4.34,0-9-2.36-12.129-5.24c-0.275-0.283-0.594-0.522-0.941-0.71c-1.24-0.55-2.469,0.47-3.568,1.37c0.711,2.226,1.719,4.345,3,6.3
	c2.121,3.336,5.633,5.539,9.559,6c1.941,0.141,3.93-0.239,5.811,0.261s3.619,2.42,3,4.239c-0.619,1.82-2.949,2.17-4.84,2.271
	c-2.639,0.303-5.311,0.112-7.881-0.561c-1.539-0.51-3-1.359-4.439-2c-6.369-2.63-14.4-1.159-19.65-5.609
	c-0.498-0.458-1.037-0.869-1.609-1.23C581.799,692.26,584.34,696.25,586.78,697.91z"/>
<path opacity="0.05" enable-background="new    " d="M586.78,697.91c2.6,1.78,5.84,2.33,9,2.74c3.16,0.409,6.359,0.699,9.189,2.09
	c2.451,1.21,4.512,3.189,7.102,4.06c2.41,0.665,4.949,0.706,7.379,0.12c3.096-0.658,5.814-2.494,7.58-5.12
	c1.4-2.24,1.25-5.069,1.061-7.7c-0.23-3-0.439-6-0.66-8.93c0.006-0.757-0.188-1.501-0.561-2.16c-2.1-3.069-7.219,1.28-10,1.28
	c-4.34,0-9-2.36-12.129-5.24c-0.275-0.283-0.594-0.522-0.941-0.71c-1.24-0.55-2.469,0.47-3.568,1.37c0.711,2.226,1.719,4.345,3,6.3
	c2.121,3.336,5.633,5.539,9.559,6c1.941,0.141,3.93-0.239,5.811,0.261s3.619,2.42,3,4.239c-0.619,1.82-2.949,2.17-4.84,2.271
	c-2.639,0.303-5.311,0.112-7.881-0.561c-1.539-0.51-3-1.359-4.439-2c-6.369-2.63-14.4-1.159-19.65-5.609
	c-0.498-0.458-1.037-0.869-1.609-1.23C581.799,692.26,584.34,696.25,586.78,697.91z"/>
<path fill="#303D5C" d="M655.809,503.26c2.027,9.952,0.102,20.303-5.369,28.86c-1.627,2.219-3.08,4.559-4.35,7
	c-0.736,1.79-1.305,3.645-1.701,5.54l-4.83,20c-1.309,5.399-2.619,10.899-2.229,16.43c0.279,3.86,1.25,8.2-1.131,11.25
	c-0.574,0.594-1.059,1.267-1.439,2c-0.229,0.852-0.229,1.749,0,2.6c2.439,14.511,4.25,29.681-0.16,43.721
	c-4,12.729-4.23,26.83-7.631,39.72c-0.275,1.639-1.006,3.167-2.109,4.41c-0.912,0.761-2.004,1.277-3.17,1.5
	c-5,1.2-10.301-0.2-15-2.37c-3.279-1.521-6.82-4.19-6.539-7.8c0.139-1.71,1.139-3.221,1.818-4.8c1.342-3.101,1.441-6.57,1.801-9.931
	c0.91-8.43,3.51-16.58,5.471-24.83c1.959-8.25,3.299-16.87,1.639-25.189c-3.395-17.208-8.836-33.946-16.209-49.86
	c-0.32-0.845-0.826-1.607-1.48-2.229c-0.754-0.439-1.471-0.941-2.141-1.5c-0.525-0.784-0.867-1.676-1-2.61
	c-0.729-2.63-2.898-4.57-4.359-6.89c-3.68-5.84-2.51-13.32-2.369-20.221c0.129-6.699-0.84-13.47,0.26-20.09s4.889-13.39,11.27-15.46
	c3.16-1,6.58-0.79,9.891-0.47C622.34,493.78,639.36,496.96,655.809,503.26z"/>
<path opacity="0.05" enable-background="new    " d="M655.809,503.26c2.027,9.952,0.102,20.303-5.369,28.86
	c-1.627,2.219-3.08,4.559-4.35,7c-0.736,1.79-1.305,3.645-1.701,5.54l-4.83,20c-1.309,5.399-2.619,10.899-2.229,16.43
	c0.279,3.86,1.25,8.2-1.131,11.25c-0.574,0.594-1.059,1.267-1.439,2c-0.229,0.852-0.229,1.749,0,2.6
	c2.439,14.511,4.25,29.681-0.16,43.721c-4,12.729-4.23,26.83-7.631,39.72c-0.275,1.639-1.006,3.167-2.109,4.41
	c-0.912,0.761-2.004,1.277-3.17,1.5c-5,1.2-10.301-0.2-15-2.37c-3.279-1.521-6.82-4.19-6.539-7.8c0.139-1.71,1.139-3.221,1.818-4.8
	c1.342-3.101,1.441-6.57,1.801-9.931c0.91-8.43,3.51-16.58,5.471-24.83c1.959-8.25,3.299-16.87,1.639-25.189
	c-3.395-17.208-8.836-33.946-16.209-49.86c-0.32-0.845-0.826-1.607-1.48-2.229c-0.754-0.439-1.471-0.941-2.141-1.5
	c-0.525-0.784-0.867-1.676-1-2.61c-0.729-2.63-2.898-4.57-4.359-6.89c-3.68-5.84-2.51-13.32-2.369-20.221
	c0.129-6.699-0.84-13.47,0.26-20.09s4.889-13.39,11.27-15.46c3.16-1,6.58-0.79,9.891-0.47
	C622.34,493.78,639.36,496.96,655.809,503.26z"/>
<path fill="#303D5C" d="M584.44,545.32c0.059,2.607,0.354,5.205,0.881,7.76c3.086,17.333,6.379,34.616,9.879,51.85
	c0.311,1.5,0.609,3,1,4.46c1.299,4.801,3.576,9.281,6.689,13.16c14.561,18.15,15.82,44.5,23.711,66.391
	c0.539,1.479,1.07,3,1.641,4.43c1.426,3.708,3.051,7.337,4.869,10.87c0.213,0.514,0.557,0.963,1,1.3
	c0.494,0.241,1.043,0.345,1.59,0.3c7.107,0.043,14.129-1.552,20.52-4.66c0.91-0.343,1.676-0.98,2.182-1.81
	c0.24-0.669,0.32-1.385,0.229-2.09c-0.219-4.341-0.49-8.83-2.559-12.65c-1.354-2.277-3.039-4.34-5-6.12
	c-0.471-13.641-2.145-27.213-5-40.56c-1.531-6.8-3.432-13.67-7.381-19.42c-2.91-4.24-7.09-8.431-6.58-13.551
	c0.23-2.25,1.17-5.05-0.66-6.369c-0.799-0.58-2-0.65-2.52-1.48c-0.221-0.388-0.34-0.824-0.35-1.27
	c-0.379-3.512-0.162-7.062,0.639-10.5c0.67-2.248,1.195-4.536,1.57-6.851c0.361-2.346-0.26-4.737-1.719-6.609
	c-0.102-4.681,0-9.53-0.061-14.2c-0.186-2.658,0.033-5.328,0.65-7.92c0.359-1.221,0.9-2.391,1.17-3.641
	c1-4.489-1.461-9.87,1.439-13.43c1.211-1.47,3.08-2.21,4.66-3.28c3.105-2.261,5.361-5.501,6.4-9.2
	c1.025-3.673,1.631-7.45,1.811-11.26c0.084-0.808,0.084-1.622,0-2.43c-0.057-0.416-0.168-0.823-0.33-1.21
	c-0.9-2-3.33-2.82-5.49-3.34c-13.725-3.288-27.789-4.933-41.9-4.9c-5.221-3.55-8.16-2.28-10.371,1.49
	c-1.223,2.294-2.211,4.706-2.949,7.2c-1,3.06-1.07,20.149-2.061,23.22C580.79,532.99,584.491,541.14,584.44,545.32z"/>
<path fill="#3F3D56" d="M678.831,389.78c0.379,2.689-0.91,5.33-1,8c-0.131,2.38,0.629,4.689,1.059,7
	c1.682,9.109-1.549,18.34-4.85,27c-0.625,1.406-1.014,2.906-1.15,4.439c-0.09,2.83,1.541,5.42,2,8.21
	c0.932,5.87-3.398,11.391-3.488,17.33c0,2.74,0.818,5.521,0.139,8.17c-0.623,1.716-1.408,3.37-2.34,4.94
	c-1.391,2.92-1.76,6.24-3.09,9.189c-2.391,5.341-7.529,8.82-12.43,12c-2.779-0.93-5.791-2-7.32-4.529
	c-0.674-1.241-1.107-2.599-1.279-4c-1.061-6.08-1-12.29-1-18.46c-0.092-5.307,0.189-10.613,0.84-15.881
	c1-6.71,3.17-13.17,4.73-19.76c2-8.319,3-16.91,6-24.89c2.689-7,6.889-13.3,11.299-19.32c1.689-2.3,3-5.59,6.291-5.06
	C676.106,384.658,678.346,386.911,678.831,389.78z"/>
<path opacity="0.05" enable-background="new    " d="M678.831,389.78c0.379,2.689-0.91,5.33-1,8c-0.131,2.38,0.629,4.689,1.059,7
	c1.682,9.109-1.549,18.34-4.85,27c-0.625,1.406-1.014,2.906-1.15,4.439c-0.09,2.83,1.541,5.42,2,8.21
	c0.932,5.87-3.398,11.391-3.488,17.33c0,2.74,0.818,5.521,0.139,8.17c-0.623,1.716-1.408,3.37-2.34,4.94
	c-1.391,2.92-1.76,6.24-3.09,9.189c-2.391,5.341-7.529,8.82-12.43,12c-2.779-0.93-5.791-2-7.32-4.529
	c-0.674-1.241-1.107-2.599-1.279-4c-1.061-6.08-1-12.29-1-18.46c-0.092-5.307,0.189-10.613,0.84-15.881
	c1-6.71,3.17-13.17,4.73-19.76c2-8.319,3-16.91,6-24.89c2.689-7,6.889-13.3,11.299-19.32c1.689-2.3,3-5.59,6.291-5.06
	C676.106,384.658,678.346,386.911,678.831,389.78z"/>
<path opacity="0.1" enable-background="new    " d="M607.76,331.14c2.158,3.47,3.943,7.157,5.33,11
	c1.979,0.487,4.012,0.732,6.049,0.73c7.92,0,13.531-4.5,18.182-10.19c0.398-1.83,2.91-3.529,2.629-5
	c-0.369-1.899-2.16-1.52-3.77-1.41c-4.916,0.37-9.811,1.001-14.66,1.891C620.25,328.39,607.94,331.46,607.76,331.14z"/>
<circle fill="#EE8E9E" cx="619.139" cy="316.8" r="25.37"/>
<path opacity="0.1" enable-background="new    " d="M587.049,498.58c4.391-0.26,8.811-0.09,13.221,0.09
	c2.756,0.029,5.504,0.311,8.211,0.84c3.328,0.761,6.449,2.28,9.729,3.23c5.271,1.53,10.82,1.6,16.271,2.13
	c3.582,0.352,7.141,0.909,10.658,1.67c-0.055-0.416-0.166-0.823-0.33-1.21c-0.898-2-3.33-2.82-5.488-3.34
	c-13.725-3.288-27.789-4.933-41.9-4.9C592.231,493.54,589.29,494.78,587.049,498.58z"/>
<path fill="#3F3D56" d="M604.37,358.33c1.111,1.28,2.59,2.689,4.23,2.28c0.594-0.209,1.15-0.509,1.65-0.891
	c2.92-1.88,6.51-2.319,9.949-2.84c6.938-1.049,13.791-2.589,20.51-4.61c1.947-0.709,3.99-1.123,6.061-1.229
	c4.301,0,8.109,2.88,10.811,6.229c2.699,3.351,4.6,7.271,7.25,10.66c1.879,2.42,4.119,4.551,5.879,7.061
	c4.451,6.33,5.4,14.59,4.25,22.24c-1.15,7.649-4.199,14.859-7.229,22c-1.615,4.135-3.59,8.12-5.9,11.909
	c1,5.811,0.479,12.46-2.281,17.67c-0.898,1.7-2,3.351-2.299,5.25c-0.137,1.284-0.084,2.582,0.16,3.851l1.289,9.189
	c0.391,2.801,0.781,5.601,1.291,8.37c0.93,5.09,2.199,10.61-0.16,15.21c-2.82,5.511,0.15,12.57-0.6,18.721
	c-7.938-3.069-16.252-5.044-24.721-5.87c-5.451-0.54-11-0.61-16.27-2.141c-3.281-1-6.4-2.47-9.73-3.229
	c-2.705-0.53-5.453-0.812-8.211-0.84c-6.08-0.24-12.199-0.49-18.219,0.409c-0.49,0.07-1.08,0.11-1.371-0.279
	c-0.131-0.217-0.197-0.467-0.189-0.721c-0.09-2.256,0.451-4.493,1.561-6.46c0.77-1.35,1.83-2.68,1.799-4.239
	c-0.053-0.726-0.232-1.437-0.529-2.101l-2.66-7.149c-2.25-6-1.18-13-2.35-19.28c-0.914-4.929-1.498-9.913-1.75-14.92
	c-0.221-4.28-0.09-8.91,2.5-12.33c0.771-0.821,1.441-1.731,2-2.71c0.363-1.039,0.52-2.141,0.459-3.24
	c0.061-8.56-0.172-17.116-0.699-25.67c2.25-4,4.59-8.18,6.85-12.22c2.621-4.71,5.27-9.51,6.33-14.79c0.701-3.5,0.68-7.09,1.18-10.62
	c-0.07-1.965,1.467-3.614,3.432-3.685c0.361-0.013,0.721,0.029,1.068,0.125C601.299,357.5,602.87,357.8,604.37,358.33z"/>
<path opacity="0.1" enable-background="new    " d="M511.481,343.09c1.598,1.228,3.498,1.998,5.5,2.23
	c2.609,0.18,8.17-1.36,9.799-3.601c0.682-1.127,1.006-2.435,0.93-3.75c-0.352-0.118-0.719-0.189-1.09-0.21
	c-2.838-0.323-5.707-0.208-8.51,0.34c-2.85,0.571-5.285,2.413-6.609,5C511.5,343.1,511.491,343.08,511.481,343.09z"/>
<path fill="#3F3D56" d="M595.901,397.96c-1.551,1.92-3.16,3.9-5.352,5c-2.52,1.31-5.49,1.34-8.33,1.28
	c-11.689-0.25-23.334-1.531-34.799-3.83c-1.305-0.217-2.586-0.552-3.83-1c-1.381-0.658-2.682-1.47-3.881-2.42
	c-3.77-2.71-7.6-5.48-10.469-9.141c-3.406-4.41-5.547-9.665-6.191-15.199c-2.729-2.521-4.18-6.091-5.539-9.54
	c-0.682-1.465-1.111-3.033-1.27-4.641c-0.07-1.64,1-3.359,0.709-5c-0.521-2.78-1.924-5.318-4-7.239
	c-0.459-0.307-0.811-0.751-1-1.271c-0.059-0.428,0.021-0.862,0.23-1.24c1.332-2.582,3.764-4.42,6.609-5
	c2.807-0.543,5.68-0.658,8.52-0.34c0.945,0.179,1.873,0.426,2.781,0.74l2,5.22c0.264,0.878,0.705,1.692,1.299,2.391
	c0.438,0.402,0.906,0.77,1.4,1.1c2.035,1.726,3.084,4.347,2.801,7c3.723,1.444,5.68,5.535,4.469,9.34
	c3.035,0.652,5.512,2.833,6.541,5.76c0.145,0.655,0.438,1.269,0.859,1.79c0.652,0.499,1.461,0.751,2.281,0.71
	c2.24,0.13,4.199,1.9,6.24,0.94c2.309-1.071,4.889-1.42,7.398-1c0.52,0.116,1.051,0.163,1.58,0.14
	c0.455-0.08,0.895-0.232,1.301-0.45c0.914-0.535,1.906-0.927,2.939-1.159c1.059-0.221,2.148,0.203,2.781,1.08
	c0.719-0.78,1.139-1.78,1.789-2.62c0.588-0.902,1.629-1.4,2.699-1.29c-0.67-0.601,0-1.801,0.9-2c0.902-0.066,1.807-0.032,2.701,0.1
	c2.34,0,4.139-2.14,6.42-2.7c2.1-0.51,4.889,0.101,6-1.77c0.379-0.66,0.459-1.561,1.109-2c0.436-0.219,0.936-0.275,1.41-0.16
	c1.49,0.189,2.936,0.629,4.279,1.3c2.201,8.59,1,17.51-0.629,26.23C600.045,391.052,598.405,394.805,595.901,397.96z"/>
<path opacity="0.1" enable-background="new    " d="M595.959,428.78l10.93,22c-1.18-2-3.67-2.83-5.639-4.13
	c-2.498-1.803-4.379-4.331-5.391-7.24c-0.992-2.898-1.682-5.891-2.061-8.93c-0.219-1.4-0.689-3.36,0-4.62
	C595.049,426.12,595.45,427.72,595.959,428.78z"/>
<path opacity="0.1" enable-background="new    " d="M627.401,447.46c2.469,2.44,5.479,4.23,8.199,6.39c6.33,5,10.85,12,15.26,18.771
	c1.248,1.771,2.295,3.677,3.121,5.68c-0.521,0.44-1.291,0-1.801-0.47l-8.58-7.54c-1.055-0.858-2.012-1.827-2.859-2.89
	c-1.49-2-2.15-4.511-3.5-6.61c-1.477-2.015-3.234-3.807-5.221-5.32c-2-1.689-11-9.34-8.82-12.319
	C624.799,443.96,626.1,446.17,627.401,447.46z"/>
<path fill="#3F3D56" d="M608.661,351.96c2.813-1.558,5.893-2.575,9.08-3c1.891-0.431,3.836-0.568,5.77-0.41
	c1.789,0.22,3.5,0.91,5.299,1c2.521,0.141,4.941-0.88,7.381-1.55s5.25-0.92,7.301,0.55c0.436,0.433,0.988,0.729,1.59,0.851
	c0.623-0.076,1.201-0.361,1.639-0.811c3.559-2.545,8.404-2.288,11.67,0.62c4.65,4.36,4.131,12.88,9.58,16.19
	c1.5,0.909,3.42,1.39,4.301,2.92c0.221,0.506,0.482,0.994,0.779,1.46c0.367,0.399,0.813,0.716,1.311,0.93
	c1.584,0.71,3.092,1.577,4.5,2.59c1.416,1.03,2.348,2.595,2.58,4.33c0.021,1.262-0.248,2.511-0.789,3.65
	c-5.475,13.403-18.787,21.916-33.25,21.26c-1.254,0.061-2.486-0.326-3.48-1.09c-0.521-0.589-0.936-1.267-1.221-2
	c-2.57-5.37-7.379-9.34-10.439-14.45c-1.82-3.05-3-6.45-4.881-9.45c-2.879-4.55-7.25-7.91-11.529-11.16
	c-2.41-1.84-5.1-3.77-8.131-3.64c-2.699,0.11-4.67,0.26-3.68-3.061C604.85,355.292,606.489,353.26,608.661,351.96z"/>
<path opacity="0.05" enable-background="new    " d="M608.661,351.96c2.813-1.558,5.893-2.575,9.08-3
	c1.891-0.431,3.836-0.568,5.77-0.41c1.789,0.22,3.5,0.91,5.299,1c2.521,0.141,4.941-0.88,7.381-1.55s5.25-0.92,7.301,0.55
	c0.436,0.433,0.988,0.729,1.59,0.851c0.623-0.076,1.201-0.361,1.639-0.811c3.559-2.545,8.404-2.288,11.67,0.62
	c4.65,4.36,4.131,12.88,9.58,16.19c1.5,0.909,3.42,1.39,4.301,2.92c0.221,0.506,0.482,0.994,0.779,1.46
	c0.367,0.399,0.813,0.716,1.311,0.93c1.584,0.71,3.092,1.577,4.5,2.59c1.416,1.03,2.348,2.595,2.58,4.33
	c0.021,1.262-0.248,2.511-0.789,3.65c-5.475,13.403-18.787,21.916-33.25,21.26c-1.254,0.061-2.486-0.326-3.48-1.09
	c-0.521-0.589-0.936-1.267-1.221-2c-2.57-5.37-7.379-9.34-10.439-14.45c-1.82-3.05-3-6.45-4.881-9.45
	c-2.879-4.55-7.25-7.91-11.529-11.16c-2.41-1.84-5.1-3.77-8.131-3.64c-2.699,0.11-4.67,0.26-3.68-3.061
	C604.85,355.292,606.489,353.26,608.661,351.96z"/>
<path fill="#3F3D56" d="M595.45,719.69c1.84,1.72,4.371,2.47,6.82,3c5.611,1.096,11.291,1.798,17,2.1l5.539,0.42
	c5.41,0.41,10.83,0.83,16.271,0.85c6.705,0.025,13.398-0.554,20-1.729c0.928,0.094,1.758-0.583,1.852-1.511
	c0.016-0.164,0.01-0.328-0.021-0.489c-0.119-6.758-0.943-13.484-2.461-20.07c-0.629-2.71-5.48,3.36-5.699,3.61
	c-1.016,1.437-2.652,2.309-4.41,2.35c-5.58,0.3-11.83-3.09-16.27-6.109c-0.947-0.706-1.951-1.331-3-1.87
	c-0.775-0.348-1.598-0.581-2.441-0.69c-2.871-0.271-5.76,0.313-8.299,1.68c-3.33,1.65-6.26,4-9.561,5.73
	c-2.684,1.381-5.58,2.297-8.57,2.71c-3,0.42-6.619,0.62-8.17,3.229l0,0C592.7,715.06,593.62,717.98,595.45,719.69z"/>
<path fill="#E8EAF2" d="M595.45,720.69c1.84,1.72,4.371,2.47,6.82,3c5.611,1.096,11.291,1.798,17,2.1l5.539,0.42
	c5.41,0.41,10.83,0.83,16.271,0.85c6.705,0.025,13.398-0.554,20-1.729c0.611-0.021,1.189-0.296,1.59-0.76
	c0.521-0.692,0.939-1.457,1.24-2.271c-0.121-6.75-1.941-13.49-3.461-20.07c-0.629-2.71-5.48,3.36-5.699,3.61
	c-1.016,1.438-2.652,2.309-4.41,2.35c-5.58,0.301-11.83-3.09-16.27-6.109c-0.947-0.706-1.951-1.331-3-1.87
	c-0.775-0.348-1.598-0.58-2.441-0.69c0.721,4,6.48,8.86,9.451,10.341c6,3,13.16,1.5,19.869,1.85c0.492-0.021,0.982,0.097,1.41,0.34
	c0.801,0.53,0.85,1.67,0.83,2.63c-0.061,1.601-0.26,3.48-1.65,4.3c-0.695,0.33-1.461,0.488-2.23,0.46
	c-16.533,0.721-33.098,0.14-49.539-1.739c-2.766-0.179-5.488-0.783-8.07-1.79c-1.688-0.785-3.262-1.794-4.68-3
	C591.86,714.55,593.62,718.98,595.45,720.69z"/>
<path fill="#3F3D56" d="M609.27,316.52c0.09,2.62-1.699,7.711,3.211,6.29c2.92-0.84,3.75-4.31,7.459-3.54
	c3.711,0.771,4.561,5.351,5.82,8.341c2.086,4.822,6.406,8.313,11.561,9.34c1.049,0.25,2.141,0.25,3.189,0
	c2.391-0.681,3.75-3.15,4.73-5.44c0.846-1.945,1.549-3.951,2.1-6c0.377-1.436,0.631-2.9,0.76-4.38l0,0c0.078-0.998,0.078-2.001,0-3
	c-0.439-6-3.84-11.41-8.189-15.52c-4.352-4.11-9.621-7.08-14.84-10c-1.703-1.06-3.543-1.878-5.471-2.43
	c-1.9-0.39-3.854-0.471-5.779-0.24c-2.539,0.107-5.033,0.694-7.352,1.73c-0.951,0.467-1.824,1.077-2.59,1.81
	c-1.086,1.012-1.863,2.313-2.24,3.75c-0.939,3.85,1.512,7.32,3.512,10.37C606.94,310.27,609.139,313.14,609.27,316.52z"/>
<path opacity="0.1" enable-background="new    " d="M526.709,372.83c1.051-2.65,5.451-9.95,4.18-12.47
	c-1.322,1.88-2.447,3.89-3.359,6C526.7,368.4,527.379,371.14,526.709,372.83z"/>
<path opacity="0.1" enable-background="new    " d="M605.049,307.57c-2-3.05-4.459-6.521-3.52-10.38
	c0.467-1.695,1.471-3.193,2.859-4.27c-0.32,0.565-0.566,1.17-0.729,1.8c-0.941,3.86,1.52,7.33,3.52,10.38c1.779,2.7,4,5.58,4.1,8.95
	c0.1,2.62-1.689,7.72,3.221,6.29c2.92-0.84,3.75-4.31,7.459-3.54c3.711,0.771,4.561,5.34,5.82,8.34
	c2.086,4.823,6.406,8.314,11.561,9.341c1.045,0.25,2.135,0.25,3.18,0c0.549-0.139,1.066-0.376,1.529-0.7
	c-0.742,1.501-2.047,2.65-3.629,3.2c-1.045,0.25-2.135,0.25-3.18,0c-5.154-1.026-9.475-4.518-11.561-9.341
	c-1.26-3-2.08-7.55-5.82-8.34s-4.539,2.7-7.459,3.54c-4.91,1.43-3.121-3.67-3.221-6.29
	C609.049,313.15,606.831,310.27,605.049,307.57z"/>
<path opacity="0.1" enable-background="new    " d="M603.959,302.36c0.463,0.742,0.967,1.456,1.51,2.14
	c1.037,1.31,2.199,2.516,3.471,3.6c0.748,0.649,1.529,1.26,2.34,1.83c1.516,1.071,3.109,2.024,4.77,2.851
	c4.871,2.276,9.943,4.095,15.15,5.43l10.131,2.95c1.25,0.939,3.52,2.64,6,4.39c0.377-1.436,0.631-2.9,0.76-4.38l0,0
	c0.078-0.998,0.078-2.001,0-3c-0.439-6-3.84-11.41-8.189-15.52c-4.352-4.11-9.621-7.08-14.842-10
	c-1.701-1.06-3.541-1.878-5.469-2.43c-1.902-0.39-3.854-0.471-5.781-0.24c-2.537,0.107-5.031,0.694-7.35,1.73
	c-0.951,0.467-1.824,1.077-2.59,1.81c-0.57,0.845-1.01,1.772-1.299,2.75C601.95,298.28,602.831,300.51,603.959,302.36z"/>
<path fill="#303D5C" d="M603.959,301.67c0.463,0.745,0.967,1.463,1.51,2.15c1.035,1.31,2.197,2.512,3.471,3.59
	c0.746,0.655,1.527,1.27,2.34,1.84c1.518,1.061,3.111,2.006,4.77,2.83c4.873,2.272,9.943,4.09,15.15,5.43l10.131,2.95
	c3.539,2.67,15.369,11.43,17.359,10.34c2.34-1.29-10.5-10.38-10.5-10.38l-0.59,0.45c1.881-1.19,2.859-3.93,3.289-6.3
	c0.908-4.229,0.943-8.598,0.102-12.84c-1-4.19-3.531-8.18-7.371-10.14c-1.699-0.88-3.76-1.47-5-2.82
	c-0.188-0.197-0.352-0.415-0.49-0.65c-0.068-0.113-0.133-0.23-0.189-0.35c-0.131-0.373-0.313-0.726-0.539-1.05
	c-0.701-0.81-2-0.56-3-0.43h-0.352h-0.568c-3.811,0.08-7.5-2-11.352-2c-4.219,0-7.82,2.44-11.529,4.11l-2.131,1
	c-2.689,1.25-4.709,2.58-5.818,6.14C601.95,297.59,602.831,299.83,603.959,301.67z"/>
<path opacity="0.1" enable-background="new    " d="M633.42,286.35c-0.148,0.263-0.232,0.558-0.24,0.86
	c0.002,0.525,0.236,1.023,0.641,1.36c0.467,0.34,1.021,0.538,1.6,0.57c0.414,0.059,0.832,0.092,1.25,0.1
	c0.561,0.044,1.125-0.052,1.639-0.28c0.102-0.058,0.197-0.121,0.291-0.19c-0.188-0.197-0.354-0.415-0.49-0.65
	c-0.09,0.07-0.189,0.05-0.57,0c-0.678-0.038-1.348-0.152-2-0.34c-0.275-0.08-0.535-0.205-0.77-0.37
	c-0.344-0.294-0.596-0.679-0.73-1.11L633.42,286.35z"/>
<path opacity="0.1" enable-background="new    " d="M647.911,320.32c-0.539,0.329-1.137,0.55-1.76,0.649
	c-1.586,0.461-3.291,0.205-4.67-0.7"/>
<linearGradient id="SVGID_2_" gradientUnits="userSpaceOnUse" x1="2096.356" y1="-303.3408" x2="2096.356" y2="154.02" gradientTransform="matrix(1 0 0 -1 -1947.1797 420.3496)">
	<stop  offset="0" style="stop-color:#808080;stop-opacity:0.25"/>
	<stop  offset="0.54" style="stop-color:#808080;stop-opacity:0.12"/>
	<stop  offset="1" style="stop-color:#808080;stop-opacity:0.1"/>
</linearGradient>
<path fill="url(#SVGID_2_)" d="M223.35,406.45c-1.68-11.25-11.89-37.48-11.89-37.48l0,0c-0.18-0.79-0.38-1.56-0.61-2.34
	c-7.25-24.92-17.29-27.13-17.29-27.13l-35.94-7.66c0.288,0.19,0.538,0.431,0.74,0.71l-0.57,0.09c-1.646-1.943-2.735-4.297-3.15-6.81
	c-0.07-0.37-0.13-0.76-0.18-1.15c9.996-9.747,10.197-25.752,0.45-35.748c-0.786-0.806-1.624-1.558-2.51-2.251
	c-0.37-0.29-0.75-0.58-1.15-0.85c1.7-1.8,1.75-4.31,0.49-6.81c-2.84-5.89-9-9.61-15.32-11.42c-4.84-1.39-10.09-1.84-14.88-0.32
	c-2.685,0.997-5.286,2.204-7.78,3.61c-4.78,2.39-10,4.27-13.63,8.19c-0.943,0.823-1.446,2.041-1.36,3.29
	c0.324,0.862,0.779,1.668,1.35,2.39c1,1.79,0.76,4,0.07,6s-1.73,3.76-2.22,5.76c-0.49,2-0.3,4.35,1.2,5.78
	c0.722,0.569,1.473,1.1,2.25,1.59c0.821,0.697,1.541,1.505,2.14,2.4l4.26,5.75c1.996,2.551,3.775,5.264,5.32,8.11
	c0.914,2.153,2.019,4.222,3.3,6.18c0.416,0.546,0.892,1.042,1.42,1.479l-0.42-0.159c1.268,1.237,2.989,1.899,4.76,1.829h0.22
	c0.32-0.006,0.627-0.13,0.86-0.35v0.78c0.08,2.77,0.06,5.71-0.13,8.47l-0.33-0.17c-1.008-0.51-2.222-0.381-3.1,0.33l-33.11,26.55
	c0,0-7.2,9.85-6.19,26.83l-5.8,25.48c0,0-7.26,21.619-1.68,37.06s8.81,24.27,8.81,24.27s2.24,17.54,5.58,19
	c3.34,1.461,4.8,2.211,4.8,2.211l0.67,4.189l0,0c0,0,0.22,0.41,0.61,1.1c2.44,4.24,11.47,19.2,16.72,17.601
	c0.655,4.063,0.94,8.176,0.85,12.29l5.19,34.859c0,0,3.62,9.48,3.4,14.45c-0.22,4.971,4.24,12,4.24,12
	c-2.708,4.95-3.501,10.723-2.23,16.22c2.12,9.261,4.8,52.061,4.8,52.061l3.9,10.37l-0.11,12.149c-0.323,1.971-1.15,3.823-2.4,5.381
	c-2.51,2.729-2.34,5.88-8.37,9.6c-6.03,3.72-9.87,5.13-9.87,10.09c-0.008,0.671-0.068,1.339-0.18,2c-0.56,3.62-1.65,5.58,9.47,6.64
	c7.939,0.635,15.793-1.994,21.75-7.279c0,0,1.93-3.48,11-4.88c0,0,3.09-0.17,3.26-2.9c0.06-0.94,0-2.75,0-4.73
	c-0.15-3.789-0.51-8.199-1-8.42c-0.49-0.22-1.66-4.08-2-5.46h2.51c0,0,2.35-17.54,0-28.899c-2.35-11.36-0.22-19.41-0.22-19.41
	l-0.45-30c0,0-3.12-3.311-0.67-9.16s0-34.75,0-34.75s0.9-10.36,3.46-12.79s0.13-15.189,0-15.859l4.57,15.31c0,0,2,30.44,6.25,36
	l1.22,13.78c0,0,8.7,12.689,7,19.529c-1.7,6.841,1.79,31.54,1.79,31.54v25.221c0,0-3.91,10.14,1.56,13.779l2.35-0.09
	c-0.8,0.721-1.37,1.811-2.27,2.74c-1.05,1.08-1.64,5.17-2,8.69c-0.28,3-0.37,5.54-0.37,5.54c1.527,2.263,3.983,3.729,6.7,4
	c4.35,0.25,18.74,11.25,18.74,11.25s14.23,0,17.91-0.74l0.21-0.061c1.185-0.368,2.182-1.182,2.78-2.27
	c0.747-1.25,0.986-2.739,0.67-4.16c-0.45-2.18-2.18-4.56-6-6.59c-9.55-5-11-9.75-11-9.75l-6.2-9.34h0.89c0,0-0.56-9.931,6.24-21.07
	l-0.45-49.16c0,0,2.79-16.88-2-26c0,0-0.39-9.7,2.81-12.68c3.2-2.98-4.26-33.09-4.26-33.09s-1.53-16.16-3.37-30.91l0,0
	c7.53,7.14,15.35-18.58,16.66-23.15h0.19l-0.09-0.33l0.09-0.33l0,0c0,0-1.67-6-0.45-4.739c1.22,1.26,4.24-3.311,4.24-3.311
	s-0.44-24.6,4.8-37C230.91,436.61,223.35,406.45,223.35,406.45z M200.92,422.1v-0.069c0.78,15-0.15,47.069-0.15,47.069
	s-1,4.11-2.14,8.95l-0.79-30.45l0,0l-0.75-28.68L200.92,422.1z M104.92,411.75c0,0,3.79,47.43,0,54.27c-1.08,1.94-2,5.41-2.74,9.37
	c-1.25-3.29-3.9-11-3-15.109c1.22-5.29-2.46-19.19-2.46-19.521s-0.33-7.72,2.35-13.41c2.68-5.689,0.89-8.1,0.89-8.1
	s2.24-9.27,4.92-7.47L104.92,411.75z"/>
<path fill="#A1616A" d="M114.11,518.56c-3.3,14.521-16.44-7.439-19.43-12.699c-0.39-0.69-0.61-1.101-0.61-1.101l1.43-6.68l7.53-3.06
	c1.191,0.62,2.319,1.354,3.37,2.189C110.52,500.43,116.66,507.31,114.11,518.56z"/>
<path fill="#A1616A" d="M216.05,494.78c0,0,0,0.109-0.08,0.319l-0.11,0.36c-1.28,4.53-8.95,30.06-16.34,23
	c-8.1-7.77-4.16-25.63-4.16-25.63h0.05l17-1.75l3.37,3.47l0,0L216.05,494.78z"/>
<path fill="#3F3D56" d="M206.19,620.38l0.43,48.72c-6.67,11.061-6.12,20.92-6.12,20.92l-22,0.87c-5.37-3.609-1.53-13.68-1.53-13.68
	v-25.08c0,0-3.4-24.52-1.76-31.31s-6.89-19.38-6.89-19.38l-1.22-13.66c-4.16-5.471-6.13-35.69-6.13-35.69l-4.48-15.189
	c0.12,0.659,2.44,13.39,0,15.739c-2.44,2.351-3.39,12.7-3.39,12.7s2.41,28.68,0,34.49c-2.41,5.81,0.65,9.09,0.65,9.09l0.44,29.78
	c0,0-2.08,8,0.22,19.26c2.3,11.26,0,28.69,0,28.69h-23.66l0.11-12.15l-3.81-10.33c0,0-2.63-42.47-4.71-51.67
	c-1.25-5.451-0.472-11.171,2.19-16.09c0,0-4.38-7-4.16-11.94c0.22-4.939-3.32-14.34-3.32-14.34l-5.09-34.6
	c0.135-6.675-0.728-13.331-2.56-19.75c-3-9.851-7.33-22.771-7.33-22.771l4.94,0.44l24.95,2.22c0,0,60.65-4.08,63.37-0.69
	c0.574,1.105,0.959,2.299,1.14,3.53c2.72,12.24,6.32,50.561,6.32,50.561s7.34,29.89,4.19,32.84s-2.76,12.59-2.76,12.59
	C208.92,603.63,206.19,620.38,206.19,620.38z"/>
<path fill="#303D5C" d="M154.92,705.09c-0.17,2.72-3.2,2.88-3.2,2.88c-8.87,1.391-10.76,4.851-10.76,4.851
	c-5.826,5.231-13.543,7.845-21.35,7.229c-10.91-1.06-9.84-3-9.29-6.6c0.113-0.661,0.173-1.33,0.18-2c0-4.931,3.77-6.33,9.69-10
	s5.74-6.82,8.21-9.521c2.47-2.7,2.71-8,2.71-8c2.79-4.84,9.85,0.74,9.85,0.74c0.33,1.72,10.84,1.48,10.84,1.48s1.4,5.579,2.11,5.909
	c0.48,0.221,0.83,4.601,1,8.36C154.96,702.37,154.98,704.16,154.92,705.09z"/>
<path opacity="0.1" enable-background="new    " d="M154.92,705.09c-0.17,2.72-3.2,2.88-3.2,2.88
	c-8.87,1.391-10.76,4.851-10.76,4.851c-5.826,5.231-13.543,7.845-21.35,7.229c-10.91-1.06-9.84-3-9.29-6.6
	c4.87,1.21,14.2,2.899,19.63-0.061c7.56-4.1,13-7,13-7l12-6C154.96,702.37,154.98,704.16,154.92,705.09z"/>
<path fill="#303D5C" d="M221.75,719.71c-0.59,1.07-1.567,1.875-2.73,2.25l-0.21,0.06c-3.61,0.73-17.58,0.73-17.58,0.73
	s-14.12-10.92-18.39-11.17c-2.667-0.27-5.076-1.714-6.57-3.94c0,0,0.08-2.54,0.36-5.5c0.33-3.489,0.91-7.55,1.94-8.62
	c1.89-2,2.3-4.68,6.57-3c0,0,6.07-10.689,13.21-2.43l7.4,11.22c0,0,1.39,4.681,10.76,9.69c3.75,2,5.45,4.37,5.89,6.53
	C222.717,716.955,222.485,718.448,221.75,719.71z"/>
<path opacity="0.1" enable-background="new    " d="M221.75,719.71c-0.84,0.7-1.76,1.47-2.73,2.25l-0.21,0.06
	c-3.61,0.73-17.58,0.73-17.58,0.73s-14.12-10.92-18.39-11.17c-2.667-0.27-5.076-1.714-6.57-3.94c0,0,0.08-2.54,0.36-5.5
	c4.34,1.311,10.93,3.601,12.7,6.08c2.7,3.771,10.93,9,10.93,9s15.33-1.47,22.14-1.68C222.715,716.962,222.482,718.451,221.75,719.71
	z"/>
<path fill="#A1616A" d="M162.05,337.63l-20.19,21.351c0,0-24.47-1.811-20.2-9c2.18-3.681,2.52-11.391,2.33-18.091
	c-0.18-6.46-0.85-12-0.85-12s34.33-17.11,31.7-1.109c-0.562,3.004-0.596,6.084-0.1,9.1C156.24,335.88,162.05,337.63,162.05,337.63z"
	/>
<path opacity="0.1" enable-background="new    " d="M154.84,318.78c-0.562,3.004-0.596,6.084-0.1,9.1c-4.58,4.63-10.94,3.61-18,3.61
	c-4.66,0-9.66,0.069-13.41-2.141c-0.18-6.47-0.22-9.42-0.22-9.42S157.47,302.78,154.84,318.78z"/>
<path fill="#A1616A" d="M162.05,308.78c-0.005,13.969-11.331,25.29-25.3,25.29c-13.957-0.017-25.265-11.333-25.27-25.29
	c0.481-13.965,12.191-24.896,26.156-24.415C150.925,284.824,161.592,295.491,162.05,308.78z"/>
<path opacity="0.1" enable-background="new    " d="M196.47,498.55c-6.29,15-46.81,15.3-46.81,15.3v-16.34l-2.45-0.16
	c1.06,4.681-1.49,16.091-1.49,16.091c-32,4.52-39.82-13.71-39.82-13.71l1.11-6.24l24.95,2.22c0,0,60.65-4.08,63.37-0.69
	C195.904,496.125,196.289,497.318,196.47,498.55z"/>
<path fill="#E1E7EF" d="M149.66,511.88v-16.35l-2.45-0.15c1.06,4.67-1.49,16.09-1.49,16.09c-24.1,3.4-34.48-6.09-38.14-11
	c-0.654-0.845-1.217-1.757-1.68-2.72l9.77-55l2.3-81l3.53-14.2l0.81-6.819v-0.08h0.09l2.49,1.069l14.91,6.45l16.94-12.79l0.24-0.189
	l0.85-0.641l1.4,1.13l3.48,2.79l11.17,72.101c0,0,19.37,55.529,23,77.939c0.14,0.891,0.26,1.721,0.35,2.5
	C199.59,511.5,149.66,511.88,149.66,511.88z"/>
<circle fill="#67647E" cx="141.62" cy="349.79" r="1.44"/>
<circle fill="#67647E" cx="142.28" cy="362.93" r="1.44"/>
<circle fill="#67647E" cx="143.72" cy="384.19" r="1.44"/>
<circle fill="#67647E" cx="146.1" cy="407.1" r="1.44"/>
<circle fill="#67647E" cx="147.54" cy="428.62" r="1.44"/>
<circle fill="#67647E" cx="148.98" cy="451.53" r="1.44"/>
<circle fill="#67647E" cx="148.4" cy="474.19" r="1.44"/>
<path opacity="0.1" enable-background="new    " d="M123.27,450.78c0,0-1.61,21.069-4.56,27.2c-2.95,6.13-4.27,23.319-4.27,23.319
	l-6.86-0.78c-0.654-0.845-1.217-1.757-1.68-2.72l9.77-55l2.3-81l3.53-14.2l0.81-6.819h0.1c0.77-0.375,1.669-0.375,2.44,0l0.33,0.17
	c-0.1,0.28-0.2,0.569-0.28,0.859c-2.68,8.381-3.68,23.82-3.68,23.82s3.84,28.25,4.27,41.39
	C125.92,420.16,123.27,450.78,123.27,450.78z"/>
<path opacity="0.1" enable-background="new    " d="M106.4,497.21c-0.078,0.176-0.168,0.347-0.27,0.51
	c-2.66,4.5-9.4,7.351-11.45,8.141c-0.39-0.69-0.61-1.101-0.61-1.101l1.43-6.68l7.53-3.06
	C104.221,495.641,105.349,496.374,106.4,497.21z"/>
<path fill="#303D5C" d="M88.16,389.69l-6.24,3.72l-5.69,25.3c0,0-7.12,21.45-1.65,36.78c5.47,15.33,8.65,24.09,8.65,24.09
	s2.19,17.41,5.48,18.83s4.71,2.189,4.71,2.189l0.63,4.181c0,0,8.91-3,12.07-8.351c3.16-5.35-2.32-18.58-2.32-18.58
	s-4.71-11.279-3.51-16.529s-2.4-19-2.4-19.38c0-0.381-0.33-7.671,2.29-13.311c2.62-5.64,0.88-8,0.88-8l-1.64-16.1L88.16,389.69z"/>
<path opacity="0.1" enable-background="new    " d="M196.99,493.78c0,0-16.53,6.239-21.79,0.77c-5.26-5.47-4.71-31.1-4.71-31.1
	s-5-47.29-8.21-55.07c-3.21-7.78-1.53-63.83-1.53-63.83s-2.14-7.25-4-9.14c-0.117-0.125-0.248-0.235-0.39-0.33l0.63,0.14l2.25,0.49
	l3.48,2.79l11.17,72.1c0,0,19.37,55.53,23,77.94L196.99,493.78z"/>
<path opacity="0.1" enable-background="new    " d="M216.05,495.46h-0.19c-2.07,0.271-20.45,2.49-20.52-1.34
	c-0.002-0.441,0.021-0.882,0.07-1.32l17-1.75l3.37,3.47l0,0c0.06,0.221,0.11,0.42,0.16,0.57L216.05,495.46z"/>
<path fill="#303D5C" d="M198.42,364.36l12.08,6.3c0,0,10,26,11.67,37.21c0,0,7.45,29.91,2.3,42.22c-5.15,12.311-4.7,36.72-4.7,36.72
	s-3,4.49-4.17,3.28c-1.17-1.21,0.45,4.69,0.45,4.69s-20.63,2.739-20.72-1.311s4.72-23.41,4.72-23.41s1.31-46.1-0.55-53.329
	C197.64,409.5,198.42,364.36,198.42,364.36z"/>
<path opacity="0.1" enable-background="new    " d="M162.39,413.45c0,0-6.78,16.64-9,17.74c-2.22,1.1,0.43,5.47,0.43,5.47
	S166.23,419.36,162.39,413.45z"/>
<path opacity="0.1" enable-background="new    " d="M158.34,355.09c0.08-0.32-8.1,8-10.29,9.271
	C145.86,365.63,156.05,364.29,158.34,355.09z"/>
<path opacity="0.1" enable-background="new    " d="M135.57,412.14c0,0-12.48,8.07-10.84,11.261
	C126.37,426.59,135.57,412.14,135.57,412.14z"/>
<path opacity="0.1" enable-background="new    " d="M158.23,529.94c0,0,10.63,6.84,27.16,8.539L158.23,529.94z"/>
<path opacity="0.1" enable-background="new    " d="M132.72,546.37c0,0,9.86,12.41,14.33,12.7
	C151.52,559.36,132.72,546.37,132.72,546.37z"/>
<path opacity="0.1" enable-background="new    " d="M146.52,594.87c-0.44,0.22-5.59,11.17-10.84,11.5S146.52,594.87,146.52,594.87z"
	/>
<path opacity="0.1" enable-background="new    " d="M192.17,618.85c0,0,9.77-2.189,11.94,4.82
	C204.11,623.67,203.45,621.48,192.17,618.85z"/>
<path opacity="0.1" enable-background="new    " d="M185.61,658.92c0,0,11.82-2.41,14.34,0.88
	C202.47,663.09,185.61,658.92,185.61,658.92z"/>
<path opacity="0.1" enable-background="new    " d="M152.14,664.5c0,0.11-12,2.41-11.57,3.95c0.43,1.54,12.85,1.31,13.28-1.101
	c0.339-1.218-0.374-2.48-1.592-2.82C152.219,664.519,152.18,664.509,152.14,664.5z"/>
<path opacity="0.1" enable-background="new    " d="M181.66,674.91c0,0,19.79-2.41,18.54,1.75S181.66,674.91,181.66,674.91z"/>
<path opacity="0.1" enable-background="new    " d="M78.05,431.19c0.11,0.329,13,2.079,14.78,6.239c0,0-12.7-5.91-14.67-5.91"/>
<path opacity="0.1" enable-background="new    " d="M96.26,465.02c0,0-10.73,3.391-10,8.54C86.99,478.71,85.21,471.16,96.26,465.02z
	"/>
<path opacity="0.1" enable-background="new    " d="M91.26,491.08c0,0,3.91-5.37,7.63-4.38C102.61,487.69,91.26,491.08,91.26,491.08
	z"/>
<path opacity="0.1" enable-background="new    " d="M152.55,288.96c-0.378,0.366-0.801,0.682-1.26,0.94c-3.11,1.8-4,4.58-5.44,7.78
	c-1.36,2.93-2.88,6-5.64,7.7c-3.56,2.15-8.26,1.36-12,3.23c-3.354,1.767-5.31,5.385-4.95,9.159c0.219,1.422,0.554,2.823,1,4.19
	c0.85,2.959,1.231,6.033,1.13,9.11c0.01,0.09,0.01,0.18,0,0.27c-12.488-6.255-17.541-21.45-11.286-33.938
	c6.256-12.488,21.45-17.541,33.938-11.286c1.578,0.791,3.068,1.743,4.447,2.844H152.55z"/>
<path fill="#303D5C" d="M151.89,281.35c-2.78-5.84-8.82-9.54-15-11.34c-4.74-1.37-9.89-1.82-14.6-0.31
	c-2.634,0.991-5.185,2.188-7.63,3.58c-4.69,2.37-9.85,4.25-13.38,8.14c-0.923,0.823-1.415,2.026-1.33,3.26
	c0.313,0.854,0.758,1.654,1.32,2.37c1,1.78,0.74,4,0.07,6s-1.7,3.73-2.18,5.72s-0.29,4.31,1.18,5.73
	c0.706,0.563,1.44,1.091,2.2,1.58c0.811,0.691,1.521,1.492,2.11,2.38l4.17,5.71c1.96,2.536,3.709,5.229,5.23,8.05
	c0.896,2.136,1.98,4.188,3.24,6.13c1.39,1.851,3.56,3.33,5.87,3.131c0.359,0.009,0.702-0.154,0.92-0.44
	c0.085-0.181,0.126-0.38,0.12-0.58c0.09-3.076-0.291-6.148-1.13-9.11c-0.473-1.363-0.827-2.766-1.06-4.189
	c-0.351-3.786,1.626-7.407,5-9.16c3.72-1.87,8.42-1.07,12-3.22c2.76-1.67,4.28-4.77,5.64-7.71c1.49-3.2,2.32-6,5.44-7.78
	S153.43,284.42,151.89,281.35z"/>
<path opacity="0.1" enable-background="new    " d="M140.56,694.78c0,0,3.85,4.93,2.86,7.72
	C142.43,705.29,140.56,694.78,140.56,694.78z"/>
<path opacity="0.1" enable-background="new    " d="M192.9,707.07c0,0,0.86-6.61,4.31-6.67c3.45-0.061,3.61-0.36,6.24,0.649
	c2.63,1.01,5.1,2.59,4.32,2.83s-4.54-3.79-8.37-1.74C197.002,703.453,194.812,705.114,192.9,707.07z"/>
<path opacity="0.1" enable-background="new    " d="M129.05,356.48l10.8-7.601c0,0-15.85-9.36-17.74-8.05
	c-1.89,1.31-3.18,13.15-3.18,13.15L129.05,356.48z"/>
<path fill="#E1E7EF" d="M128.97,355.98l10.84-7.761c0,0-15.85-9.359-17.74-8c-1.89,1.36-3.18,13.8-3.18,13.8L128.97,355.98z"/>
<path opacity="0.03" enable-background="new    " d="M128.97,355.98l10.84-7.761c0,0-15.85-9.359-17.74-8
	c-1.89,1.36-3.18,13.8-3.18,13.8L128.97,355.98z"/>
<path fill="#303D5C" d="M123.87,340.26l-0.33-0.16c-0.978-0.484-2.147-0.359-3,0.32l-32.49,26.36c0,0-7.06,9.77-6.08,26.63
	l19.08,27.16c0,0,2.19-9.2,4.82-7.45c0,0,3.72,47.08,0,53.87c-3.72,6.79-5.37,32.189-5.37,32.189l12.59,1.42
	c0,0,1.32-17.189,4.27-23.319c2.95-6.13,4.57-27.19,4.57-27.19s2.66-30.62,2.22-43.76s-4.27-41.38-4.27-41.38
	S120.98,348.39,123.87,340.26z"/>
<path opacity="0.1" enable-background="new    " d="M156.24,351.67l-13.51-5c0,0,17.2-18.83,19.34-8.38L156.24,351.67z"/>
<path fill="#E1E7EF" d="M156.24,351.01l-13.51-5c0,0,17.2-18.84,19.34-8.39L156.24,351.01z"/>
<path opacity="0.03" enable-background="new    " d="M156.24,351.01l-13.51-5c0,0,17.2-18.84,19.34-8.39L156.24,351.01z"/>
<path opacity="0.1" enable-background="new    " d="M155.8,335c0.194-0.036,0.395,0.003,0.56,0.11L155.8,335z"/>
<path fill="#303D5C" d="M157.11,333.68l35.83,7.73c0,0,9.85,2.189,17,26.93S200.2,423.4,200.2,423.4l-3.73-3.16l1.87,72.26
	c0,0-16.54,6.24-21.79,0.77c-5.25-5.47-4.71-31.1-4.71-31.1s-5-47.3-8.21-55.07c-3.21-7.77-1.58-63.83-1.58-63.83
	S159.11,333.25,157.11,333.68z"/>
<path opacity="0.1" enable-background="new    " d="M189.88,379.78c-0.51,0.47-1.1,22.33,1.09,39c1.345,10.137,3.42,20.162,6.21,30
	l-3.25-66.681C193.93,382.1,191.41,378.3,189.88,379.78z"/>
<path opacity="0.1" enable-background="new    " d="M185.5,360.9c0.87,0.54,4.7,9.63,2.95,13.35S185.5,360.9,185.5,360.9z"/>
<path opacity="0.1" enable-background="new    " d="M151.68,281.35c-1.752-3.469-4.495-6.34-7.88-8.25
	c2.511,1.792,4.541,4.176,5.91,6.94c1.53,3.07,1.09,6.15-1.92,7.89c-3.01,1.74-4,4.57-5.44,7.78c-1.36,2.93-2.87,6-5.64,7.7
	c-3.56,2.15-8.26,1.36-12,3.229c-3.356,1.766-5.313,5.386-4.95,9.16c0.22,1.422,0.555,2.822,1,4.19
	c0.85,2.959,1.231,6.033,1.13,9.109c0.012,0.201-0.03,0.401-0.12,0.58c-0.217,0.287-0.56,0.451-0.92,0.44
	c-0.928,0.066-1.857-0.105-2.7-0.5c1.238,1.226,2.93,1.882,4.67,1.81c0.494,0.059,0.941-0.294,1-0.787
	c0.009-0.07,0.009-0.142,0-0.213c0.099-3.076-0.279-6.148-1.12-9.109c-0.473-1.364-0.827-2.766-1.06-4.19
	c-0.36-3.774,1.595-7.393,4.95-9.16c3.71-1.87,8.41-1.069,12-3.22c2.77-1.67,4.28-4.77,5.64-7.71c1.5-3.2,2.33-6,5.44-7.78
	C152.78,287.48,153.21,284.42,151.68,281.35z"/>
<ellipse opacity="0.1" fill="#2E72B9" enable-background="new    " cx="519.6" cy="773.94" rx="41" ry="5.63"/>
<path fill="#2E72B9" d="M536.219,766.92c1.84-1.495,3.18-3.515,3.84-5.79c0.49-2.3-0.488-5.05-2.68-5.89
	c-2.459-0.94-5.09,0.76-7.08,2.49c-1.99,1.729-4.279,3.68-6.889,3.319c2.73-2.473,3.961-6.197,3.24-9.81
	c-0.109-0.737-0.42-1.431-0.9-2c-1.361-1.46-3.84-0.84-5.48,0.31c-5.199,3.66-6.65,10.72-6.67,17.08c-0.529-2.29-0.09-4.68-0.1-7
	s-0.66-5-2.641-6.229c-1.229-0.656-2.607-0.98-4-0.94c-2.34-0.09-4.94,0.14-6.54,1.85c-2,2.131-1.471,5.69,0.26,8
	c1.729,2.311,4.35,3.801,6.76,5.421c1.941,1.15,3.596,2.727,4.84,4.609c0.146,0.265,0.266,0.543,0.359,0.83h14.65
	C530.465,771.5,533.502,769.397,536.219,766.92z"/>
<ellipse opacity="0.1" fill="#2E72B9" enable-background="new    " cx="29.25" cy="739.88" rx="29.14" ry="4"/>
<path fill="#2E72B9" d="M37.21,726.78c1.838-1.5,3.177-3.522,3.84-5.8c0.49-2.29-0.48-5.051-2.68-5.891
	c-2.46-0.939-5.09,0.771-7.08,2.49c-1.99,1.72-4.28,3.68-6.89,3.32c2.734-2.471,3.965-6.198,3.24-9.811
	c-0.108-0.737-0.419-1.43-0.9-2c-1.36-1.46-3.84-0.84-5.47,0.311c-5.2,3.659-6.65,10.72-6.68,17.08c-0.53-2.29-0.09-4.681-0.1-7
	c-0.01-2.32-0.66-5-2.64-6.23c-1.228-0.659-2.607-0.983-4-0.94c-2.34-0.09-4.94,0.15-6.54,1.851c-2,2.13-1.47,5.689,0.26,8
	c1.73,2.31,4.35,3.81,6.77,5.42c1.936,1.154,3.587,2.729,4.83,4.61c0.146,0.265,0.266,0.542,0.36,0.829h14.65
	C31.456,731.354,34.493,729.255,37.21,726.78z"/>
<path fill="#2E72B9" d="M734.901,654.38c0,0,5.5,7.19-2.531,18c-8.029,10.811-14.65,20-12,26.771c0,0,12.109-20.15,22-20.431
	C752.26,678.44,745.75,666.5,734.901,654.38z"/>
<path opacity="0.1" enable-background="new    " d="M734.901,654.38c0.48,0.696,0.861,1.457,1.129,2.26
	c9.621,11.301,14.74,21.851,5.49,22.11c-8.609,0.25-18.939,15.65-21.42,19.54c0.08,0.303,0.18,0.601,0.301,0.89
	c0,0,12.109-20.149,22-20.43C752.29,678.47,745.75,666.5,734.901,654.38z"/>
<path fill="#FFD037" d="M745.12,663.54c0,2.53-0.289,4.58-0.639,4.58c-0.352,0-0.631-2.05-0.631-4.58s0.35-1.34,0.699-1.34
	C744.901,662.2,745.12,661.01,745.12,663.54z"/>
<path fill="#FFD037" d="M748.62,666.56c-2.219,1.211-4.15,1.94-4.32,1.631c-0.17-0.311,1.49-1.53,3.711-2.74s1.35-0.33,1.52,0
	S750.84,665.35,748.62,666.56z"/>
<path fill="#2E72B9" d="M705.889,654.38c0,0-5.5,7.19,2.531,18c8.029,10.811,14.65,20,12,26.771c0,0-12.121-20.15-22-20.431
	C688.54,678.44,695.049,666.5,705.889,654.38z"/>
<path opacity="0.1" enable-background="new    " d="M705.889,654.38c-0.48,0.696-0.861,1.457-1.129,2.26
	c-9.621,11.301-14.74,21.851-5.49,22.11c8.609,0.25,18.939,15.65,21.42,19.54c-0.082,0.302-0.178,0.599-0.289,0.89
	c0,0-12.121-20.149-22-20.43C688.52,678.47,695.049,666.5,705.889,654.38z"/>
<path fill="#FFD037" d="M695.67,663.54c0,2.53,0.289,4.58,0.639,4.58c0.352,0,0.631-2.05,0.631-4.58s-0.35-1.34-0.699-1.34
	C695.889,662.2,695.67,661.01,695.67,663.54z"/>
<path fill="#FFD037" d="M692.17,666.56c2.219,1.211,4.16,1.94,4.32,1.631c0.16-0.311-1.49-1.53-3.711-2.74s-1.35-0.33-1.52,0
	S689.95,665.35,692.17,666.56z"/>
<path fill="#A8A8A8" d="M697.42,698.24c0,0,15.359-0.48,20-3.771c4.639-3.29,23.629-7.229,24.779-2
	c1.15,5.23,23.08,26.29,5.74,26.431c-17.34,0.14-40.289-2.7-44.91-5.511C698.411,710.58,697.42,698.24,697.42,698.24z"/>
<path opacity="0.2" enable-background="new    " d="M748.241,717.11c-17.34,0.14-40.291-2.7-44.91-5.511
	c-3.521-2.14-4.92-9.83-5.391-13.38h-0.52c0,0,1,12.38,5.6,15.2s27.57,5.65,44.91,5.51c5,0,6.73-1.819,6.641-4.449
	C753.87,716.09,751.959,717.08,748.241,717.11z"/>
<path id="Blue_1_" fill="#3C5A99" d="M370.08,257.338c4.692,0,8.498-3.805,8.498-8.499v-136.98c0-4.693-3.806-8.498-8.498-8.498
	H233.1c-4.693,0-8.498,3.804-8.498,8.498v136.98c0,4.692,3.803,8.499,8.498,8.499H370.08z"/>
<path id="f" fill="#FFFFFF" d="M330.843,257.338V197.71h20.015l2.996-23.238h-23.011v-14.837c0-6.727,1.869-11.313,11.516-11.313
	l12.305-0.004v-20.785c-2.127-0.283-9.432-0.917-17.931-0.917c-17.741,0-29.887,10.83-29.887,30.717v17.138h-20.066v23.238h20.066
	v59.627H330.843z"/>
</svg>
