<?xml version="1.0" encoding="utf-8"?>
<!-- Generator: Adobe Illustrator 15.1.0, SVG Export Plug-In . SVG Version: 6.00 Build 0)  -->
<!DOCTYPE svg PUBLIC "-//W3C//DTD SVG 1.1//EN" "http://www.w3.org/Graphics/SVG/1.1/DTD/svg11.dtd">
<svg version="1.1" id="f2456c70-ccca-41b2-a3e1-979b94970e3c"
	 xmlns="http://www.w3.org/2000/svg" xmlns:xlink="http://www.w3.org/1999/xlink" x="0px" y="0px" width="1077px" height="722.2px"
	 viewBox="0 0 1077 722.2" enable-background="new 0 0 1077 722.2" xml:space="preserve">
<title>mobile life</title>
<g opacity="0.2">
	<path fill="#3F3D56" d="M119.24,655.43c-0.364,2.604-0.508,5.232-0.43,7.859c17.433,0.281,34.933,0.863,52.5,1.75
		c0.12-0.68,0.24-1.379,0.34-2.09c1.132-7.332,0.287-14.834-2.45-21.73c-3.62-8.83-10.37-15.139-18.82-16.35
		c-8.45-1.209-16.69,2.939-22.64,10.361C123.158,641.086,120.224,648.059,119.24,655.43z"/>
	
		<ellipse transform="matrix(-0.9901 -0.14 0.14 -0.9901 214.565 1246.3582)" fill="#3F3D56" cx="151.126" cy="615.631" rx="26.476" ry="34.656"/>
	
		<ellipse transform="matrix(-0.9898 -0.1423 0.1423 -0.9898 231.5641 1167.2502)" fill="#3F3D56" cx="157.514" cy="575.346" rx="26.48" ry="34.661"/>
	
		<ellipse transform="matrix(-0.9898 -0.1423 0.1423 -0.9898 249.515 1084.6821)" fill="#3F3D56" cx="163.537" cy="533.42" rx="26.48" ry="34.659"/>
	
		<ellipse transform="matrix(-0.9898 -0.1423 0.1423 -0.9898 267.4689 1002.0986)" fill="#3F3D56" cx="169.561" cy="491.487" rx="26.48" ry="34.661"/>
	<path fill="#2E72B9" d="M308.9,218.62c4.234-4.056,8.184-8.4,11.82-13l-67.22-21.17l74.39,11.26
		c18.949-29.342,24.985-65.19,16.69-99.12L237.21,134.1l101.88-54.49c-26.012-65.037-99.823-96.673-164.86-70.66
		c-65.037,26.012-96.673,99.823-70.661,164.86c2.268,5.669,4.941,11.167,8,16.45c-6.598,6.297-12.501,13.284-17.61,20.84
		l82.71,59.28L85.96,224.7c-19.37,38.236-18.129,83.668,3.3,120.79c-50.691,48.333-52.603,128.608-4.27,179.299
		s128.608,52.604,179.3,4.27c42.364-40.393,51.579-104.533,22.3-155.219C328.954,333.447,338.173,269.309,308.9,218.62z"/>
	<path opacity="0.1" enable-background="new    " d="M73.55,264.02c-4.085,28.151,1.45,56.857,15.71,81.47
		c-50.691,48.333-52.603,128.608-4.27,179.299s128.608,52.604,179.3,4.27c42.364-40.393,51.579-104.533,22.3-155.219
		C306.5,354.9,75.58,249.93,73.55,264.02z"/>
</g>
<path fill="#3A3768" d="M0,478.5c0,98.379,61.72,178,138,178"/>
<path fill="#2E72B9" d="M138,656.5c0-99.49,68.88-180,154-180"/>
<path fill="#2E72B9" d="M50,487.42c0,93.449,39.36,169.08,88,169.08"/>
<path fill="#3A3768" d="M138,656.5c0-127.131,79.61-230,178-230"/>
<ellipse opacity="0.1" fill="#2E72B9" enable-background="new    " cx="132.01" cy="684.71" rx="34.31" ry="5.8"/>
<path fill="#A8A8A8" d="M108.97,657.75c0,0,19.57-0.6,25.47-4.801c5.9-4.199,30.1-9.209,31.56-2.48
	c1.46,6.73,29.42,33.5,7.32,33.682c-22.1,0.18-51.34-3.441-57.23-7C110.2,673.59,108.97,657.75,108.97,657.75z"/>
<path opacity="0.2" enable-background="new    " d="M173.72,681.809c-22.1,0.172-51.34-3.449-57.23-7
	c-4.48-2.729-6.27-12.529-6.87-17h-0.65c0,0,1.24,15.791,7.12,19.371c5.88,3.58,35.14,7.209,57.23,7c6.38,0,8.58-2.32,8.46-5.68
	C180.89,680.5,178.5,681.77,173.72,681.809z"/>
<ellipse opacity="0.1" fill="#2E72B9" enable-background="new    " cx="560.68" cy="705.209" rx="511" ry="16.99"/>
<path fill="#3A3768" d="M697.65,189.35h5.33c1.265,0,2.289,1.025,2.289,2.29v77.15c0,1.265-1.024,2.29-2.289,2.29h-5.33
	c-1.266,0-2.29-1.025-2.29-2.29v-77.15C695.36,190.375,696.385,189.35,697.65,189.35z"/>
<path fill="#3A3768" d="M368.08,125.32h0.98c1.265,0,2.29,1.025,2.29,2.29v22.33c0,1.265-1.025,2.29-2.29,2.29h-0.98
	c-1.265,0-2.29-1.025-2.29-2.29v-22.33C365.79,126.345,366.815,125.32,368.08,125.32z"/>
<path fill="#3A3768" d="M367.88,174.58h1.69c1.265,0,2.29,1.025,2.29,2.29v42.26c0,1.265-1.025,2.29-2.29,2.29h-1.69
	c-1.265,0-2.29-1.025-2.29-2.29v-42.26C365.59,175.605,366.615,174.58,367.88,174.58z"/>
<path fill="#3A3768" d="M367.98,237.81h1.39c1.265,0,2.29,1.025,2.29,2.29v42.66c0,1.265-1.025,2.29-2.29,2.29h-1.39
	c-1.265,0-2.29-1.025-2.29-2.29V240.1C365.69,238.835,366.715,237.81,367.98,237.81z"/>
<path fill="#3A3768" d="M407.93,36.4h253.79c21.534,0,38.99,17.457,38.99,38.99v596.29c0,21.533-17.456,38.99-38.99,38.99H407.93
	c-21.533,0-38.99-17.457-38.99-38.99V75.39C368.94,53.856,386.396,36.4,407.93,36.4z"/>
<path fill="#E6E8EC" d="M506.69,56.53h38.59c2.137,0,3.87,1.733,3.87,3.87v1.67c0,2.138-1.733,3.87-3.87,3.87h-38.59
	c-2.138,0-3.87-1.732-3.87-3.87V60.4C502.82,58.263,504.553,56.53,506.69,56.53z"/>
<circle fill="#E6E8EC" cx="561.49" cy="61.24" r="5.34"/>
<path fill="#E6E8EC" d="M653.87,53.96h-38v4.57c0,11.985-9.716,21.7-21.7,21.7l0,0H473.11c-11.979,0.005-21.694-9.701-21.7-21.68
	c0-0.006,0-0.013,0-0.02v-4.57h-35.63c-14.553,0-26.35,11.797-26.35,26.35l0,0v586.44c0,14.553,11.797,26.35,26.35,26.35h238.09
	c14.547,0,26.34-11.793,26.34-26.34c0-0.004,0-0.008,0-0.01V80.31c0.006-14.547-11.783-26.345-26.33-26.35
	C653.877,53.96,653.873,53.96,653.87,53.96z"/>
<g opacity="0.3">
	<path fill="#2E72B9" d="M404.7,309.321h192.24c2.144,0,3.88,1.738,3.88,3.881v10.24c0,2.143-1.736,3.879-3.88,3.879H404.7
		c-2.143,0-3.88-1.736-3.88-3.879v-10.24C400.82,311.059,402.558,309.321,404.7,309.321z"/>
	<path fill="#2E72B9" d="M404.7,337.321h192.24c2.144,0,3.88,1.738,3.88,3.881v10.24c0,2.143-1.736,3.879-3.88,3.879H404.7
		c-2.143,0-3.88-1.736-3.88-3.879v-10.24C400.82,339.059,402.558,337.321,404.7,337.321z"/>
	<path fill="#2E72B9" d="M404.7,365.321h192.24c2.144,0,3.88,1.738,3.88,3.881v10.24c0,2.143-1.736,3.879-3.88,3.879H404.7
		c-2.143,0-3.88-1.736-3.88-3.879v-10.24C400.82,367.059,402.558,365.321,404.7,365.321z"/>
	<path fill="#2E72B9" d="M404.7,393.321h192.24c2.144,0,3.88,1.738,3.88,3.881v10.24c0,2.143-1.736,3.879-3.88,3.879H404.7
		c-2.143,0-3.88-1.736-3.88-3.879v-10.24C400.82,395.059,402.558,393.321,404.7,393.321z"/>
	<path fill="#2E72B9" d="M404.7,421.321h68.24c2.143,0,3.88,1.738,3.88,3.881v10.24c0,2.143-1.737,3.879-3.88,3.879H404.7
		c-2.143,0-3.88-1.736-3.88-3.879v-10.24C400.82,423.059,402.558,421.321,404.7,421.321z"/>
</g>
<path opacity="0.3" fill="#2E72B9" enable-background="new    " d="M402.21,91.75h260.58c3.153,0,5.71,2.557,5.71,5.71v194.581
	c0,3.152-2.557,5.709-5.71,5.709H402.21c-3.153,0-5.71-2.557-5.71-5.709V97.46C396.5,94.307,399.057,91.75,402.21,91.75z"/>
<path fill="#FBBEBE" d="M818.4,457.879c0.3,4,1.42,8.74,5.199,10.121c1.822,0.514,3.756,0.482,5.561-0.09
	c4.743-1.029,9.054-3.498,12.34-7.07c3.14-3.66,4.72-8.83,3.39-13.461c-1.26-4.42-4.83-7.719-7.34-11.57
	c-2.93-4.488-3.87-9.568-5.91-14.389C815.5,422.969,817.5,445.86,818.4,457.879z"/>
<path fill="#3F3D56" d="M801.4,265.1c-2.15,7,5.47,14.62,7.93,21.5s5.77,13.5,7.1,20.7c0.91,4.95,0.86,10,1.221,15.05
	c0.659,9.45,2.76,18.721,5,27.91c3.166,13.28,6.557,26.504,10.17,39.67c1.793,5.98,3.206,12.07,4.229,18.23
	c0.938,6.666,0.911,13.432-0.08,20.09c-6.348-1.902-13.185-1.275-19.08,1.75c-4.119-7.236-6.594-15.291-7.25-23.59
	c-0.248-4.922-0.201-9.854,0.141-14.771c0.64-13.908-5.391-27.84-5.591-41.759c0.063-4.824-0.318-9.645-1.14-14.399
	c-0.66-3.271-0.6-9.391-1.31-12.65c-1.131-5.18,3.729-7.57,3.46-12.88l-1.48-29C804.41,275.87,799.31,269.64,801.4,265.1z"/>
<path opacity="0.1" enable-background="new    " d="M801.4,265.1c-2.15,7,5.47,14.62,7.93,21.5s5.77,13.5,7.1,20.7
	c0.91,4.95,0.86,10,1.221,15.05c0.659,9.45,2.76,18.721,5,27.91c3.166,13.28,6.557,26.504,10.17,39.67
	c1.793,5.98,3.206,12.07,4.229,18.23c0.938,6.666,0.911,13.432-0.08,20.09c-6.348-1.902-13.185-1.275-19.08,1.75
	c-4.119-7.236-6.594-15.291-7.25-23.59c-0.248-4.922-0.201-9.854,0.141-14.771c0.64-13.908-5.391-27.84-5.591-41.759
	c0.063-4.824-0.318-9.645-1.14-14.399c-0.66-3.271-0.6-9.391-1.31-12.65c-1.131-5.18,3.729-7.57,3.46-12.88l-1.48-29
	C804.41,275.87,799.31,269.64,801.4,265.1z"/>
<path fill="#FBBEBE" d="M728.38,242.63c0.391,1.699,1.175,3.281,2.29,4.62c10.131,14.132,21.67,27.199,34.44,39
	c1.302-1.343,2.392-2.877,3.229-4.55c5.789-10.597,8.689-22.529,8.41-34.6c-5.79-1.86-12.34-4.46-14.2-10.24
	c-1.46-4.56,0.51-10-2.08-14.06c-3.66-5.72-19.239-6.46-24.25-2.3c-3.27,2.72-2.1,5.26-3.14,8.94
	C731.93,233.45,727.74,238.34,728.38,242.63z"/>
<path opacity="0.1" enable-background="new    " d="M728.38,242.63c0.391,1.699,1.175,3.281,2.29,4.62
	c10.131,14.132,21.67,27.199,34.44,39c1.302-1.343,2.392-2.877,3.229-4.55c5.789-10.597,8.689-22.529,8.41-34.6
	c-5.79-1.86-12.34-4.46-14.2-10.24c-1.46-4.56,0.51-10-2.08-14.06c-3.66-5.72-19.239-6.46-24.25-2.3c-3.27,2.72-2.1,5.26-3.14,8.94
	C731.93,233.45,727.74,238.34,728.38,242.63z"/>
<path fill="#3F3D56" d="M733.58,704.879c1.631,1.17,3.504,1.955,5.479,2.301c19.021,4.691,38.669,6.309,58.2,4.789
	c2.601-0.199,6.08-1.6,5.44-4.129c-0.641-2.531-4-2.221-6.3-2.93c-2.17-0.66-3.801-2.41-5.41-4c-6-5.951-13.271-10.541-20.42-15.08
	c-1.743-1.25-3.688-2.191-5.75-2.781c-2.48-0.559-5.061-0.09-7.55,0.391c-6.301,1.189-18.32,1-23.301,5.66
	C729.98,692.799,729.39,701.219,733.58,704.879z"/>
<path fill="#3F3D56" d="M806.65,699.889c0,1.551,0.17,3.291,1.359,4.291c0.945,0.652,2.086,0.959,3.23,0.869
	c8.294-0.055,15.886-4.666,19.76-12l28-3.27c5.3-0.619,10.7-1.26,15.56-3.459c5.75-2.592,10.341-7.17,14.801-11.641
	c0.779-0.662,1.372-1.518,1.72-2.48c0.47-1.77-0.88-3.619-2.57-4.32c-1.745-0.576-3.613-0.678-5.41-0.289
	c-13.67,1.879-27.39,8-40.76,4.59c-3.28-0.83-6.52-2.24-9.89-2c-1.819,0.234-3.599,0.713-5.29,1.42
	c-4.351,1.6-17.351,3.859-20.23,7.551C804.05,682.84,806.65,695.491,806.65,699.889z"/>
<path fill="#3A3768" d="M735.87,387.241c-4,6.24-12.42,7.59-18.311,12.059c-9,6.871-10.59,19.67-11.1,31
	c-0.36,7.852-0.57,15.801,1.17,23.461c1.21,5.34,3.351,10.41,5,15.65c3.5,11.359,4.47,23.34,5,35.229c1.38,30,0.16,60.182,4,90
	c1.101,8.521,2.62,17,3.45,25.551c2.76,28.32-1.91,57.52,5.67,84.939c8.19-8.887,19.666-14.025,31.75-14.219
	c2.51,0,5.12,0.148,7.42-0.861s4.11-3.689,3.16-6c-0.579-1.002-1.249-1.949-2-2.83c-3.3-5,2.32-12.08-0.09-17.59
	c-0.92-2.109-2.94-3.68-3.521-5.92c-0.63-2.42,0.59-4.9,0.931-7.379c0.67-5-2.2-9.65-3.69-14.451c-2.25-7.25-1.35-15-0.57-22.59
	c2.583-24.799,3.718-49.729,3.4-74.66c-0.22-16.869-1.061-34.1,3.8-50.26c9.095,8.572,16.884,18.43,23.12,29.26
	c3.88,6.621,7.229,13.68,8.52,21.24c1,5.541,0.761,11.211,0.57,16.84l-2.88,86.301c-0.59,17.391-1.09,35.299,4.95,51.629
	c15.319-8.17,31-16,46.33-24.209c-0.261-5.66-7.851-7.721-10.66-12.641c-1.003-2.055-1.546-4.303-1.59-6.59
	c-1.95-23.379,2.83-46.74,7.239-69.779c1.681-8.781,3.311-17.621,3.311-26.561c0-14.18-4.16-28-8.44-41.5
	c-4.54-14.32-9.29-28.57-14-42.82c-3.05-9.15-6.1-18.311-9.909-27.17c-3.61-8.369-7.891-16.471-11-25.049
	c-4.931-13.781-6.61-28.471-8.271-43C777.79,378.469,756.65,383.1,735.87,387.241z"/>
<circle fill="#FBBEBE" cx="746.35" cy="203.73" r="29.22"/>
<path fill="#2E72B9" d="M757.27,274.37l-2.119-15.84c-0.112-1.765-0.589-3.488-1.4-5.06c-0.979-1.396-2.223-2.585-3.66-3.5
	L729.73,235.1c-1-0.76-2.381-1.56-3.53-1c-0.724,0.48-1.232,1.222-1.42,2.07c-3.21,9.51-1.23,19.86-0.101,29.83
	c0.94,8.31,1.261,16.68,1.58,25c0.46,7.553,0.46,15.127,0,22.68c-1.109,13.08-5,26.25-2.39,39.11c1.71,8.51,4.75,16.419,5.46,25.08
	c0.479,6,0.33,12.1,2.229,17.791c7-3,14.921-2.68,22.54-2.271l18.46,1c2.565,0.236,5.149,0.176,7.7-0.18
	c2.846-0.592,5.57-1.66,8.061-3.16c6.563-3.699,12.3-8.701,16.859-14.699c-3.12-15.07-0.1-30.63-2.17-45.88
	c-1.2-8.79-4.17-17.25-5.569-26c-1.73-10.8-1-22-4.15-32.49c-1.746-5.311-3.965-10.455-6.63-15.37
	c-2.712-5.59-7.18-10.139-12.72-12.95c-1.021-0.56-2.167-0.852-3.33-0.85c-2.95,0.16-4.771,3.28-5.58,6.12
	c-1,3.41-1.29,7-2.061,10.41C761.79,264.36,760.17,270.16,757.27,274.37z"/>
<path fill="#3F3D56" d="M697.38,462.879c3.9,4.111,11,3.102,15.521-0.289c9.85-7.359,10.76-21.471,11.3-33.75
	c0.189-4.41,0.49-9,2.56-12.859c3.17-6,9.71-9.102,15.15-13.08c12.9-9.451,20.479-25,22.74-40.791c2.26-15.79-0.33-32-4.69-47.37
	c-7.54-26.57-20.24-51.34-33.13-75.76c-0.384-0.911-1.006-1.702-1.8-2.29c-2.62-1.63-5.46,1.58-7.25,4.09
	c-6.07,8.51-16.07,13.06-25.23,18.09c-9.16,5.03-18.53,11.73-21.3,21.8c-1.86,6.76-0.41,13.93,1,20.78
	c1.41,6.85,6.34,12.29,10.07,18.06c4.323,6.368,8.225,13.013,11.68,19.891c1.307,2.565,2.313,5.273,3,8.069
	c0.61,3.297,0.876,6.648,0.79,10c0.22,20.72,0.43,41.511-2.08,62.091c-1.41,11.629-3.69,23.309-2.65,35
	C693.34,457.731,695.17,460.53,697.38,462.879z"/>
<path fill="#FBBEBE" d="M722.08,424.25c4.17,1.869,8.37,3.789,12.88,4.529s9.42,0.141,13-2.641c3.58-2.779,5.45-8.078,3.41-12.158
	c3.207,0.1,6.416-0.051,9.6-0.451c1.82-0.24,4-0.939,4.32-2.75c0.33-2.129-2.24-3.4-4.31-4l-11.15-3.08
	c-3.267-1.047-6.654-1.672-10.08-1.859c-2.123,0.045-4.24,0.254-6.33,0.629L716.5,405.1c-0.451,0.039-0.888,0.174-1.28,0.4
	c-0.512,0.432-0.863,1.023-1,1.68c-0.819,2.6-4.609,9.84-3.31,12.41C711.98,421.76,719.75,423.1,722.08,424.25z"/>
<path fill="#3F3D56" d="M828.64,435.209c-2.06,4.602-6.026,8.076-10.859,9.51c-1.037,0.369-2.155,0.441-3.23,0.211
	c-2-0.551-3.1-2.641-3.93-4.541c-19.81-45.09-18.7-96.399-31.29-143.999c-3.74-14.13-8.74-28.33-7.84-42.92
	c0.16-2.61,0.71-5.54,2.89-7c1.94-1.3,4.58-0.95,6.71,0c2.13,0.95,3.95,2.5,6,3.56c3.311,1.69,7.16,2.17,10.34,4.08
	c4.721,2.84,7.131,8.24,9.24,13.32c4.51,10.85,9,22,9.36,33.76c0.76,22.84-9.37,44.791-4.09,67c1.139,4.381,2.5,8.699,4.08,12.939
	c5.293,15.322,9.635,30.955,13,46.811C829.61,430.651,829.74,432.719,828.64,435.209z"/>
<path fill="#3A3768" d="M727.4,206.3c1.739-2.84,4.17-5.33,5.119-8.52c0.671-2.26,0.53-4.73,1.33-6.95c2-5.48,8.95-7.5,14.69-6.55
	c5.74,0.95,10.93,4,16.54,5.53c3.11,0.85,7.439,0.59,8.32-2.51c0.58-2.06-0.82-4.11-2.141-5.8l-16.56-21.21
	c-2.19,0.56-4.62,1.09-6.601,0c-1.149-0.62-2-1.74-3.279-2.09c-3.45-1-6.34,4.31-9.801,3.38c-1-0.26-1.789-1-2.789-1.08
	c-2.79-0.23-3.841,4.39-6.631,4.62c-1.159,0.1-2.27-0.64-3.43-0.53c-1.028,0.21-1.946,0.781-2.59,1.61
	c-5.54,5.89-7.8,14.34-7.5,22.43c0.3,8.09-1.09,15.91,2,23.38c1.37,3.25,4.12,7.09,7.479,6c0-4.4,4.101-8.79,4.15-13.18"/>
<g opacity="0.1">
	<path d="M783.86,502.1c-5.95-9.844-13.21-18.832-21.58-26.721c-4.86,16.16-4,33.391-3.8,50.26c0.317,24.932-0.818,49.861-3.4,74.66
		c-0.78,7.551-1.68,15.34,0.57,22.59c1.489,4.801,4.359,9.471,3.689,14.451c-0.34,2.48-1.56,5-0.93,7.379
		c0.58,2.24,2.6,3.811,3.52,5.92c2.41,5.512-3.21,12.561,0.09,17.592c0.752,0.879,1.421,1.826,2,2.83c1,2.318-0.859,5-3.159,6
		s-4.91,0.84-7.42,0.859c-9.464,0.16-18.627,3.354-26.141,9.109c0.663,6.113,1.804,12.166,3.41,18.1
		c8.2-8.896,19.692-14.037,31.79-14.219c2.51,0,5.12,0.148,7.42-0.861s4.11-3.689,3.16-6c-0.579-1.002-1.249-1.949-2-2.83
		c-3.3-5,2.32-12.08-0.09-17.59c-0.92-2.109-2.94-3.68-3.521-5.92c-0.63-2.42,0.59-4.9,0.931-7.379c0.67-5-2.2-9.65-3.69-14.451
		c-2.25-7.25-1.35-15-0.57-22.59c2.583-24.799,3.718-49.729,3.4-74.66c-0.22-16.869-1.061-34.1,3.8-50.26
		C775.852,492.625,780.037,497.215,783.86,502.1z"/>
</g>
<g opacity="0.1">
	<path d="M712.1,189.57c0-1.373,0-2.753,0-4.14c-0.05,1.07-0.06,2.14,0,3.21C712.09,188.95,712.1,189.26,712.1,189.57z"/>
	<path d="M765.08,185.81c-5.61-1.54-10.79-4.59-16.54-5.53c-5.75-0.94-12.71,1.07-14.69,6.55c-0.8,2.22-0.659,4.69-1.33,6.95
		c-0.949,3.19-3.38,5.68-5.119,8.52l-1.65-1.46c0,4.39-4.1,8.78-4.15,13.18c-3.359,1.09-6.109-2.75-7.479-6
		c-1.401-3.587-2.104-7.409-2.07-11.26c-0.09,5.23,0,10.33,2.07,15.26c1.37,3.26,4.12,7.1,7.479,6c0-4.4,4.101-8.79,4.15-13.18
		l1.65,1.46c1.739-2.84,4.17-5.33,5.119-8.52c0.671-2.26,0.53-4.73,1.33-6.95c2-5.48,8.95-7.5,14.69-6.55
		c5.74,0.95,10.93,4,16.54,5.53c3.11,0.85,7.439,0.59,8.32-2.51c0.253-1.054,0.111-2.164-0.4-3.12
		C771.61,186.44,767.87,186.57,765.08,185.81z"/>
</g>
<path fill="#3F3D56" d="M670.57,310.46c-0.848,6.114-2.076,12.17-3.681,18.13l-7,28.53c-0.75,3-1.51,6.16-1.17,9.269
	c0.46,4.191,2.841,7.9,5.25,11.361c13.688,19.656,30.405,37.018,49.53,51.439c-1.11-5.689,2.84-11,6.56-15.48
	c3.721-4.479,7.32-8.77,12.171-11.67c-12.12-11.434-23.86-23.25-35.221-35.449c-1.193-1.172-2.223-2.502-3.06-3.951
	c-2.74-5.29,0-11.609,2.39-17.08c7.53-17.39,11.08-37.119,6.25-55.45c-1.82-6.88-5-13.77-10.79-18c-2.53-1.84-5.95-3.1-8.76-1.7
	c-1.177,0.677-2.198,1.594-3,2.69C671.07,284.01,672.14,297.16,670.57,310.46z"/>
<g opacity="0.2">
	<path fill="#3F3D56" d="M961.61,632.35c0.405,2.26,0.99,4.482,1.75,6.65c14.22-4.58,28.576-8.914,43.069-13
		c-0.09-0.6-0.17-1.221-0.279-1.84c-1.026-6.371-3.713-12.359-7.791-17.361c-5.289-6.33-12.449-9.709-19.63-8.379
		c-7.18,1.33-12.76,7-15.609,14.84C960.97,619.385,960.449,625.963,961.61,632.35z"/>
	
		<ellipse transform="matrix(-0.1563 -0.9877 0.9877 -0.1563 545.9559 1649.7726)" fill="#3F3D56" cx="977.628" cy="591.698" rx="30.29" ry="22.64"/>
	
		<ellipse transform="matrix(-0.1563 -0.9877 0.9877 -0.1563 574.6903 1601.3811)" fill="#3F3D56" cx="971.327" cy="555.229" rx="30.29" ry="22.64"/>
	
		<ellipse transform="matrix(-0.1563 -0.9877 0.9877 -0.1563 603.4534 1552.9857)" fill="#3F3D56" cx="965.023" cy="518.751" rx="30.289" ry="22.64"/>
	
		<ellipse transform="matrix(-0.1563 -0.9877 0.9877 -0.1563 632.1656 1504.5883)" fill="#3F3D56" cx="958.722" cy="482.284" rx="30.29" ry="22.64"/>
	<path fill="#2E72B9" d="M998.97,217.41c2.362-4.522,4.414-9.2,6.141-14l-60.21,0.94l63.359-11.17
		c3.98-15.509,4.621-31.686,1.88-47.46c-2.384-13.961-7.399-27.342-14.779-39.43L918.25,167l68.12-73.33
		c-24.08-29.18-62.3-44.76-101.74-37.5C825.73,67.02,786.41,124.7,796.82,185c4.113,24.357,16.249,46.641,34.479,63.31
		c-3.676,7.057-6.599,14.481-8.72,22.15l82.92,26.38l-85.79-12.91c-1.782,11.965-1.641,24.139,0.42,36.06
		c4.113,24.357,16.25,46.641,34.48,63.309c-11.512,22.023-15.438,47.229-11.17,71.711c10.409,60.311,66.6,100.4,125.51,89.561
		c58.909-10.842,98.22-68.531,87.81-128.83c-4.113-24.357-16.249-46.643-34.479-63.311c11.528-22.018,15.472-47.223,11.22-71.709
		C1029.38,256.354,1017.225,234.067,998.97,217.41z"/>
	<path opacity="0.1" enable-background="new    " d="M820.13,319.99c4.113,24.357,16.25,46.641,34.48,63.309
		c-11.512,22.023-15.438,47.229-11.17,71.711c10.409,60.311,66.6,100.4,125.51,89.561c58.909-10.84,98.22-68.531,87.81-128.83
		c-4.113-24.357-16.249-46.643-34.479-63.311C1033.37,331.22,818.02,307.74,820.13,319.99z"/>
</g>
<path fill="#3A3768" d="M909,549c0,52.309,32.81,94.639,73.37,94.639"/>
<path fill="#2E72B9" d="M982.37,643.639c0-52.898,36.62-95.699,81.87-95.699"/>
<path fill="#2E72B9" d="M935.58,553.75c0,49.68,20.93,89.889,46.79,89.889"/>
<path fill="#3A3768" d="M982.37,643.639c0-67.59,42.319-122.279,94.63-122.279"/>
<ellipse opacity="0.1" fill="#2E72B9" enable-background="new    " cx="973.89" cy="653.9" rx="18.681" ry="3.159"/>
<path fill="#A8A8A8" d="M961.35,639.231c0,0,10.65-0.33,13.86-2.621c3.21-2.289,16.39-5,17.19-1.35c0.8,3.65,16,18.24,4,18.34
	s-28-1.881-31.15-3.83S961.35,639.231,961.35,639.231z"/>
<path opacity="0.2" enable-background="new    " d="M996.59,652.321c-12,0.1-27.939-1.871-31.15-3.83
	c-2.439-1.48-3.409-6.82-3.739-9.281h-0.351c0,0,0.67,8.59,3.881,10.541c3.209,1.949,19.119,3.92,31.149,3.83
	c3.47,0,4.67-1.271,4.601-3.102C1000.5,651.61,999.18,652.299,996.59,652.321z"/>
<g id="Symbol">
	<g>
		<path fill="#3A3768" d="M484.546,124.197c-4.908,1.905-9.051,4.447-13.202,8.596c-4.15,4.12-6.692,8.295-8.596,13.169
			c-1.849,4.725-3.092,10.143-3.451,18.071c-0.366,7.935-0.454,10.478-0.454,30.704c0,20.222,0.088,22.769,0.454,30.69
			c0.359,7.936,1.634,13.359,3.451,18.078c1.904,4.906,4.446,9.057,8.596,13.206c4.15,4.139,8.293,6.687,13.202,8.592
			c4.724,1.854,10.142,3.09,18.07,3.456c7.935,0.365,10.476,0.454,30.704,0.454c20.222,0,22.77-0.089,30.691-0.454
			c7.935-0.366,13.359-1.641,18.077-3.456c4.906-1.905,9.057-4.453,13.207-8.592c4.138-4.149,6.686-8.3,8.591-13.206
			c1.854-4.719,3.091-10.143,3.456-18.078c0.366-7.922,0.454-10.469,0.454-30.69c0-20.227-0.088-22.77-0.454-30.704
			c-0.365-7.929-1.64-13.346-3.456-18.071c-1.905-4.875-4.453-9.05-8.565-13.169c-4.15-4.149-8.301-6.691-13.195-8.596
			c-4.73-1.849-10.142-3.09-18.076-3.456c-7.936-0.36-10.482-0.455-30.704-0.455c-20.221,0-22.763,0.094-30.698,0.455
			C494.688,121.075,489.27,122.348,484.546,124.197z M563.406,134.125c7.266,0.333,11.202,1.545,13.838,2.573
			c3.481,1.363,5.967,2.964,8.565,5.57c2.611,2.604,4.213,5.09,5.575,8.571c1.035,2.63,2.246,6.566,2.574,13.833
			c0.365,7.839,0.429,10.204,0.429,30.092c0,19.893-0.101,22.252-0.429,30.099c-0.328,7.266-1.539,11.201-2.574,13.838
			c-1.362,3.481-2.964,5.954-5.575,8.565c-2.599,2.599-5.084,4.2-8.565,5.563c-2.636,1.034-6.572,2.245-13.838,2.573
			c-7.833,0.366-10.192,0.429-30.086,0.429c-19.893,0-22.252-0.088-30.099-0.429c-7.266-0.328-11.202-1.539-13.831-2.573
			c-3.482-1.362-5.968-2.964-8.572-5.563c-2.599-2.611-4.208-5.084-5.57-8.565c-1.028-2.637-2.239-6.572-2.573-13.838
			c-0.359-7.847-0.422-10.206-0.422-30.099c0-19.888,0.088-22.252,0.422-30.092c0.334-7.266,1.545-11.202,2.573-13.833
			c1.362-3.481,2.971-5.967,5.57-8.571c2.604-2.605,5.09-4.207,8.572-5.57c2.629-1.028,6.565-2.24,13.831-2.573
			c7.847-0.366,10.206-0.423,30.099-0.423C553.214,133.702,555.573,133.759,563.406,134.125z"/>
		<path fill="#3A3768" d="M495.079,194.763c0,21.129,17.138,38.234,38.242,38.234c21.104,0,38.234-17.13,38.234-38.234
			c0-21.099-17.104-38.235-38.234-38.235C512.184,156.528,495.079,173.633,495.079,194.763z M558.146,194.763
			c0,13.712-11.113,24.825-24.825,24.825c-13.719,0-24.826-11.113-24.826-24.825s11.107-24.826,24.826-24.826
			C547.032,169.938,558.146,181.051,558.146,194.763z"/>
		<path fill="#3A3768" d="M573.094,146.083c4.945,0,8.932,3.999,8.932,8.931c0,4.933-3.986,8.931-8.932,8.931
			c-4.919,0-8.931-3.999-8.931-8.931C564.163,150.082,568.175,146.083,573.094,146.083z"/>
	</g>
</g>
<path opacity="0.3" fill="#2E72B9" enable-background="new    " d="M402.21,467.569h260.58c3.153,0,5.71,2.557,5.71,5.709v194.581
	c0,3.152-2.557,5.709-5.71,5.709H402.21c-3.153,0-5.71-2.557-5.71-5.709V473.278C396.5,470.125,399.057,467.569,402.21,467.569z"/>
</svg>
