<?xml version="1.0" encoding="utf-8"?>
<!-- Generator: Adobe Illustrator 15.1.0, SVG Export Plug-In . SVG Version: 6.00 Build 0)  -->
<!DOCTYPE svg PUBLIC "-//W3C//DTD SVG 1.1//EN" "http://www.w3.org/Graphics/SVG/1.1/DTD/svg11.dtd">
<svg version="1.1" id="Layer_1" xmlns="http://www.w3.org/2000/svg" xmlns:xlink="http://www.w3.org/1999/xlink" x="0px" y="0px"
	 width="14px" height="14px" viewBox="0 0 14 14" enable-background="new 0 0 14 14" xml:space="preserve">
<g id="surface531936">
	<path fill="#3374BA" d="M7,0C3.133,0,0,3.134,0,7s3.133,7,7,7c3.867,0,7-3.134,7-7S10.867,0,7,0z M10.994,5.395l-4.9,4.9
		C5.958,10.432,5.78,10.5,5.6,10.5c-0.18,0-0.357-0.068-0.494-0.205l-2.1-2.1c-0.273-0.275-0.273-0.716,0-0.99
		c0.274-0.273,0.716-0.273,0.99,0L5.6,8.81l4.406-4.405c0.273-0.273,0.716-0.273,0.989,0C11.269,4.679,11.268,5.122,10.994,5.395z"
		/>
</g>
</svg>
