<?xml version="1.0" encoding="utf-8"?>
<!-- Generator: Adobe Illustrator 15.1.0, SVG Export Plug-In . SVG Version: 6.00 Build 0)  -->
<!DOCTYPE svg PUBLIC "-//W3C//DTD SVG 1.1//EN" "http://www.w3.org/Graphics/SVG/1.1/DTD/svg11.dtd">
<svg version="1.1" id="Layer_1" xmlns="http://www.w3.org/2000/svg" xmlns:xlink="http://www.w3.org/1999/xlink" x="0px" y="0px"
	 width="14px" height="14px" viewBox="0 0 14 14" enable-background="new 0 0 14 14" xml:space="preserve">
<g id="surface1007687">
	<path fill="#787878" d="M7,0C4.406,0,2.29,2.116,2.29,4.71c0,0.736,0.299,1.58,0.703,2.502c0.405,0.922,0.926,1.902,1.456,2.813
		c1.059,1.826,2.126,3.354,2.126,3.354L7,14l0.426-0.621c0,0,1.066-1.527,2.126-3.354c0.529-0.911,1.051-1.891,1.455-2.813
		c0.405-0.922,0.703-1.766,0.703-2.502C11.71,2.116,9.595,0,7,0z M7,1.047c2.03,0,3.663,1.633,3.663,3.664
		c0,0.419-0.225,1.212-0.604,2.077C9.678,7.652,9.152,8.611,8.636,9.502C7.813,10.921,7.303,11.672,7,12.119
		c-0.303-0.447-0.813-1.198-1.636-2.617c-0.517-0.891-1.042-1.85-1.423-2.714C3.562,5.922,3.337,5.129,3.337,4.71
		C3.337,2.68,4.97,1.047,7,1.047z M7,3.664c-0.578,0-1.047,0.468-1.047,1.047S6.422,5.757,7,5.757S8.047,5.289,8.047,4.71
		S7.578,3.664,7,3.664z"/>
</g>
</svg>
