<?xml version="1.0" encoding="utf-8"?>
<!-- Generator: Adobe Illustrator 15.1.0, SVG Export Plug-In . SVG Version: 6.00 Build 0)  -->
<!DOCTYPE svg PUBLIC "-//W3C//DTD SVG 1.1//EN" "http://www.w3.org/Graphics/SVG/1.1/DTD/svg11.dtd">
<svg version="1.1" id="Layer_1" xmlns="http://www.w3.org/2000/svg" xmlns:xlink="http://www.w3.org/1999/xlink" x="0px" y="0px"
	 width="14px" height="12px" viewBox="0 0 14 12" enable-background="new 0 0 14 12" xml:space="preserve">
<g id="surface1006922">
	<path fill="#787878" d="M7,0C3.693,0,1,2.693,1,6c0,3.306,2.693,6,6,6c3.306,0,6-2.694,6-6C13,2.693,10.306,0,7,0z M7,0.923
		c2.809,0,5.076,2.268,5.076,5.077c0,2.809-2.268,5.076-5.076,5.076c-2.809,0-5.077-2.268-5.077-5.076
		C1.923,3.191,4.191,0.923,7,0.923z M6.538,1.846v4.616h2.77V5.538H7.461V1.846H6.538z"/>
</g>
</svg>
